<?xml version="1.0" encoding="UTF-8" standalone="no"?>
<svg
   width="125mm"
   height="124.99998mm"
   viewBox="0 0 125 124.99998"
   version="1.1"
   id="svg8"
   inkscape:version="1.1.1 (c3084ef, 2021-09-22)"
   sodipodi:docname="safari-pinned-tab.svg"
   xmlns:inkscape="http://www.inkscape.org/namespaces/inkscape"
   xmlns:sodipodi="http://sodipodi.sourceforge.net/DTD/sodipodi-0.dtd"
   xmlns="http://www.w3.org/2000/svg"
   xmlns:svg="http://www.w3.org/2000/svg"
   xmlns:rdf="http://www.w3.org/1999/02/22-rdf-syntax-ns#"
   xmlns:cc="http://creativecommons.org/ns#"
   xmlns:dc="http://purl.org/dc/elements/1.1/">
  <defs
     id="defs2">
    <inkscape:path-effect
       effect="bspline"
       id="path-effect1355"
       is_visible="true"
       lpeversion="1"
       weight="33.333333"
       steps="2"
       helper_size="0"
       apply_no_weight="true"
       apply_with_weight="true"
       only_selected="false" />
    <inkscape:path-effect
       effect="bspline"
       id="path-effect972"
       is_visible="true"
       lpeversion="1"
       weight="33.333333"
       steps="2"
       helper_size="0"
       apply_no_weight="true"
       apply_with_weight="true"
       only_selected="false" />
    <inkscape:path-effect
       effect="bspline"
       id="path-effect968"
       is_visible="true"
       lpeversion="1"
       weight="33.333333"
       steps="2"
       helper_size="0"
       apply_no_weight="true"
       apply_with_weight="true"
       only_selected="false" />
    <inkscape:path-effect
       effect="bspline"
       id="path-effect964"
       is_visible="true"
       lpeversion="1"
       weight="33.333333"
       steps="2"
       helper_size="0"
       apply_no_weight="true"
       apply_with_weight="true"
       only_selected="false" />
    <inkscape:path-effect
       effect="bspline"
       id="path-effect960"
       is_visible="true"
       lpeversion="1"
       weight="33.333333"
       steps="2"
       helper_size="0"
       apply_no_weight="true"
       apply_with_weight="true"
       only_selected="false" />
    <inkscape:path-effect
       effect="bspline"
       id="path-effect956"
       is_visible="true"
       lpeversion="1"
       weight="33.333333"
       steps="2"
       helper_size="0"
       apply_no_weight="true"
       apply_with_weight="true"
       only_selected="false" />
    <inkscape:path-effect
       effect="bspline"
       id="path-effect952"
       is_visible="true"
       lpeversion="1"
       weight="33.333333"
       steps="2"
       helper_size="0"
       apply_no_weight="true"
       apply_with_weight="true"
       only_selected="false" />
    <inkscape:path-effect
       effect="bspline"
       id="path-effect948"
       is_visible="true"
       lpeversion="1"
       weight="33.333333"
       steps="2"
       helper_size="0"
       apply_no_weight="true"
       apply_with_weight="true"
       only_selected="false" />
    <inkscape:path-effect
       effect="bspline"
       id="path-effect944"
       is_visible="true"
       lpeversion="1"
       weight="33.333333"
       steps="2"
       helper_size="0"
       apply_no_weight="true"
       apply_with_weight="true"
       only_selected="false" />
    <inkscape:path-effect
       effect="bspline"
       id="path-effect940"
       is_visible="true"
       lpeversion="1"
       weight="33.333333"
       steps="2"
       helper_size="0"
       apply_no_weight="true"
       apply_with_weight="true"
       only_selected="false" />
    <inkscape:path-effect
       effect="bspline"
       id="path-effect936"
       is_visible="true"
       lpeversion="1"
       weight="33.333333"
       steps="2"
       helper_size="0"
       apply_no_weight="true"
       apply_with_weight="true"
       only_selected="false" />
    <inkscape:path-effect
       effect="bspline"
       id="path-effect932"
       is_visible="true"
       lpeversion="1"
       weight="33.333333"
       steps="2"
       helper_size="0"
       apply_no_weight="true"
       apply_with_weight="true"
       only_selected="false" />
    <inkscape:path-effect
       effect="bspline"
       id="path-effect928"
       is_visible="true"
       lpeversion="1"
       weight="33.333333"
       steps="2"
       helper_size="0"
       apply_no_weight="true"
       apply_with_weight="true"
       only_selected="false" />
    <inkscape:path-effect
       effect="bspline"
       id="path-effect924"
       is_visible="true"
       lpeversion="1"
       weight="33.333333"
       steps="2"
       helper_size="0"
       apply_no_weight="true"
       apply_with_weight="true"
       only_selected="false" />
    <inkscape:path-effect
       effect="bspline"
       id="path-effect920"
       is_visible="true"
       lpeversion="1"
       weight="33.333333"
       steps="2"
       helper_size="0"
       apply_no_weight="true"
       apply_with_weight="true"
       only_selected="false" />
    <inkscape:path-effect
       effect="bspline"
       id="path-effect915"
       is_visible="true"
       lpeversion="1"
       weight="33.333333"
       steps="2"
       helper_size="0"
       apply_no_weight="true"
       apply_with_weight="true"
       only_selected="false" />
    <inkscape:path-effect
       effect="bspline"
       id="path-effect911"
       is_visible="true"
       lpeversion="1"
       weight="33.333333"
       steps="2"
       helper_size="0"
       apply_no_weight="true"
       apply_with_weight="true"
       only_selected="false" />
    <inkscape:path-effect
       effect="bspline"
       id="path-effect907"
       is_visible="true"
       lpeversion="1"
       weight="33.333333"
       steps="2"
       helper_size="0"
       apply_no_weight="true"
       apply_with_weight="true"
       only_selected="false" />
    <inkscape:path-effect
       effect="bspline"
       id="path-effect903"
       is_visible="true"
       lpeversion="1"
       weight="33.333333"
       steps="2"
       helper_size="0"
       apply_no_weight="true"
       apply_with_weight="true"
       only_selected="false" />
    <inkscape:path-effect
       effect="bspline"
       id="path-effect898"
       is_visible="true"
       lpeversion="1"
       weight="33.333333"
       steps="2"
       helper_size="0"
       apply_no_weight="true"
       apply_with_weight="true"
       only_selected="false" />
    <inkscape:path-effect
       effect="bspline"
       id="path-effect894"
       is_visible="true"
       lpeversion="1"
       weight="33.333333"
       steps="2"
       helper_size="0"
       apply_no_weight="true"
       apply_with_weight="true"
       only_selected="false" />
    <inkscape:path-effect
       effect="bspline"
       id="path-effect889"
       is_visible="true"
       lpeversion="1"
       weight="33.333333"
       steps="2"
       helper_size="0"
       apply_no_weight="true"
       apply_with_weight="true"
       only_selected="false" />
    <inkscape:path-effect
       effect="bspline"
       id="path-effect884"
       is_visible="true"
       lpeversion="1"
       weight="33.333333"
       steps="2"
       helper_size="0"
       apply_no_weight="true"
       apply_with_weight="true"
       only_selected="false" />
    <inkscape:path-effect
       effect="bspline"
       id="path-effect880"
       is_visible="true"
       lpeversion="1"
       weight="33.333333"
       steps="2"
       helper_size="0"
       apply_no_weight="true"
       apply_with_weight="true"
       only_selected="false" />
    <inkscape:path-effect
       effect="bspline"
       id="path-effect875"
       is_visible="true"
       lpeversion="1"
       weight="33.333333"
       steps="2"
       helper_size="0"
       apply_no_weight="true"
       apply_with_weight="true"
       only_selected="false" />
    <inkscape:path-effect
       effect="bspline"
       id="path-effect871"
       is_visible="true"
       lpeversion="1"
       weight="33.333333"
       steps="2"
       helper_size="0"
       apply_no_weight="true"
       apply_with_weight="true"
       only_selected="false" />
    <inkscape:path-effect
       effect="bspline"
       id="path-effect867"
       is_visible="true"
       lpeversion="1"
       weight="33.333333"
       steps="2"
       helper_size="0"
       apply_no_weight="true"
       apply_with_weight="true"
       only_selected="false" />
    <inkscape:path-effect
       effect="bspline"
       id="path-effect979"
       is_visible="true"
       lpeversion="1"
       weight="33.333333"
       steps="2"
       helper_size="0"
       apply_no_weight="true"
       apply_with_weight="true"
       only_selected="false" />
    <inkscape:path-effect
       effect="bspline"
       id="path-effect969"
       is_visible="true"
       lpeversion="1"
       weight="33.333333"
       steps="2"
       helper_size="0"
       apply_no_weight="true"
       apply_with_weight="true"
       only_selected="false" />
    <inkscape:path-effect
       effect="bspline"
       id="path-effect965"
       is_visible="true"
       lpeversion="1"
       weight="33.333333"
       steps="2"
       helper_size="0"
       apply_no_weight="true"
       apply_with_weight="true"
       only_selected="false" />
    <inkscape:path-effect
       effect="bspline"
       id="path-effect961"
       is_visible="true"
       lpeversion="1"
       weight="33.333333"
       steps="2"
       helper_size="0"
       apply_no_weight="true"
       apply_with_weight="true"
       only_selected="false" />
    <inkscape:path-effect
       effect="bspline"
       id="path-effect957"
       is_visible="true"
       lpeversion="1"
       weight="33.333333"
       steps="2"
       helper_size="0"
       apply_no_weight="true"
       apply_with_weight="true"
       only_selected="false" />
    <inkscape:path-effect
       effect="bspline"
       id="path-effect887"
       is_visible="true"
       lpeversion="1"
       weight="33.333333"
       steps="2"
       helper_size="0"
       apply_no_weight="true"
       apply_with_weight="true"
       only_selected="false" />
    <inkscape:path-effect
       effect="bspline"
       id="path-effect883"
       is_visible="true"
       lpeversion="1"
       weight="33.333333"
       steps="2"
       helper_size="0"
       apply_no_weight="true"
       apply_with_weight="true"
       only_selected="false" />
    <inkscape:path-effect
       effect="bspline"
       id="path-effect879"
       is_visible="true"
       lpeversion="1"
       weight="33.333333"
       steps="2"
       helper_size="0"
       apply_no_weight="true"
       apply_with_weight="true"
       only_selected="false" />
    <inkscape:path-effect
       effect="bspline"
       id="path-effect861"
       is_visible="true"
       lpeversion="1"
       weight="33.333333"
       steps="2"
       helper_size="0"
       apply_no_weight="true"
       apply_with_weight="true"
       only_selected="false" />
    <inkscape:path-effect
       effect="bspline"
       id="path-effect853"
       is_visible="true"
       lpeversion="1"
       weight="33.333333"
       steps="2"
       helper_size="0"
       apply_no_weight="true"
       apply_with_weight="true"
       only_selected="false" />
    <inkscape:path-effect
       effect="bspline"
       id="path-effect849"
       is_visible="true"
       lpeversion="1"
       weight="33.333333"
       steps="2"
       helper_size="0"
       apply_no_weight="true"
       apply_with_weight="true"
       only_selected="false" />
    <inkscape:path-effect
       effect="bspline"
       id="path-effect843"
       is_visible="true"
       lpeversion="1"
       weight="33.333333"
       steps="2"
       helper_size="0"
       apply_no_weight="true"
       apply_with_weight="true"
       only_selected="false" />
    <inkscape:path-effect
       effect="bspline"
       id="path-effect839"
       is_visible="true"
       lpeversion="1"
       weight="33.333333"
       steps="2"
       helper_size="0"
       apply_no_weight="true"
       apply_with_weight="true"
       only_selected="false" />
  </defs>
  <sodipodi:namedview
     id="base"
     pagecolor="#ffffff"
     bordercolor="#666666"
     borderopacity="1.0"
     inkscape:pageopacity="0.0"
     inkscape:pageshadow="2"
     inkscape:zoom="0.49497475"
     inkscape:cx="261.62951"
     inkscape:cy="289.91378"
     inkscape:document-units="mm"
     inkscape:current-layer="layer1"
     inkscape:document-rotation="0"
     showgrid="true"
     fit-margin-top="0"
     fit-margin-left="0"
     fit-margin-right="0"
     fit-margin-bottom="0"
     inkscape:window-width="1440"
     inkscape:window-height="771"
     inkscape:window-x="0"
     inkscape:window-y="25"
     inkscape:window-maximized="1"
     inkscape:snap-global="false"
     inkscape:pagecheckerboard="0">
    <inkscape:grid
       type="xygrid"
       id="grid833"
       originx="-148.96286"
       originy="-111.69197" />
  </sodipodi:namedview>
  <metadata
     id="metadata5">
    <rdf:RDF>
      <cc:Work
         rdf:about="">
        <dc:format>image/svg+xml</dc:format>
        <dc:type
           rdf:resource="http://purl.org/dc/dcmitype/StillImage" />
      </cc:Work>
    </rdf:RDF>
  </metadata>
  <g
     inkscape:label="レイヤー 1"
     inkscape:groupmode="layer"
     id="layer1"
     transform="translate(-148.96286,-111.69199)">
    <path
       style="fill:#a61c00;fill-opacity:1;stroke:none;stroke-width:0.235051px;stroke-linecap:butt;stroke-linejoin:miter;stroke-opacity:1"
       d="m 208.19481,234.15431 c -0.88931,-2.00758 -2.31213,-5.52964 -4.891,-10.24926 -2.57887,-4.71963 -6.3137,-10.63656 -12.80539,-19.16007 -6.49169,-8.52351 -15.73985,-19.653 -22.14259,-27.50724 -6.40273,-7.85424 -9.95971,-12.43283 -12.89432,-16.65933 -2.93461,-4.22651 -5.24665,-8.1007 -6.09154,-11.97506 -0.84489,-3.87436 -0.22241,-7.74855 0.489,-11.30587 0.71141,-3.55732 1.51173,-6.79756 3.60156,-10.2493 2.08983,-3.45173 5.46896,-7.1146 9.51523,-9.86185 4.04627,-2.74725 8.75926,-4.57868 13.29462,-5.10693 4.53535,-0.52824 8.89266,0.2466 13.29454,2.14861 4.40189,1.90201 8.84812,4.93093 12.04945,7.64297 3.20134,2.71204 5.15767,5.107 6.49162,6.41008 1.33395,1.30308 2.04535,1.5144 2.48999,1.6553 0.44464,0.1409 0.62247,0.21133 2.13411,-1.19759 1.51164,-1.40892 4.35722,-4.29695 7.02506,-6.65677 2.66784,-2.35982 5.15773,-4.19125 8.00343,-5.88186 2.84571,-1.69061 6.04699,-3.24029 8.84827,-3.94466 2.80127,-0.70437 5.20223,-0.56349 7.38094,-0.52828 2.1787,0.0352 4.13504,-0.0352 6.09146,0.10568 1.95642,0.14092 3.91276,0.49312 5.38004,1.02151 1.46729,0.52839 2.44546,1.23278 3.95724,2.00761 1.51178,0.77482 3.55705,1.6201 5.73571,3.663 2.17866,2.0429 4.49069,5.28312 5.95792,8.41778 1.46722,3.13467 2.0897,6.16358 2.48985,9.43912 0.40014,3.27553 0.57799,6.79752 -0.0445,10.21388 -0.62252,3.41636 -2.04531,6.72703 -4.31296,11.0592 -2.26765,4.33217 -5.38001,9.6856 -9.64851,15.74359 -4.26851,6.05799 -9.69291,12.82022 -14.8062,18.3851 -5.11328,5.56487 -9.91521,9.93214 -13.91696,14.44046 -4.00174,4.50831 -7.20303,9.15734 -10.40441,14.12351 -3.20138,4.96616 -6.40267,10.24915 -8.18118,13.102 -1.77852,2.85285 -2.13422,3.27549 -2.48983,3.24041 -0.35562,-0.0351 -0.71132,-0.52817 -1.60062,-2.53574 z"
       id="path865"
       inkscape:path-effect="#path-effect867"
       inkscape:original-d="m 208.72821,235.66852 c -1.42255,-3.52185 -2.84537,-7.04391 -4.26846,-10.56618 -3.73471,-5.91698 -7.46954,-11.83391 -11.20471,-17.75118 -9.24826,-11.12973 -18.49641,-22.25923 -27.74502,-33.38915 -3.55686,-4.57856 -7.11384,-9.15714 -10.67115,-13.73604 -2.31187,-3.87413 -4.62391,-7.74832 -6.93626,-11.62279 0.62276,-3.87414 1.24523,-7.74833 1.86746,-11.62281 0.80061,-3.24014 1.60093,-6.48038 2.401,-9.72088 3.37954,-3.66281 6.75867,-7.32568 10.13761,-10.98884 4.71345,-1.8313 9.42645,-3.66273 14.13928,-5.49441 4.35774,0.77508 8.71505,1.54991 13.07217,2.32456 4.44667,3.02924 8.8929,6.05815 13.33895,9.08692 1.95668,2.39526 3.91302,4.79021 5.86913,7.185 0.71169,0.21154 1.42309,0.42286 2.13424,0.63397 0.17812,0.0707 0.35596,0.14109 0.53356,0.21133 2.84595,-2.88794 5.69154,-5.77597 8.53692,-8.66427 2.49025,-1.83131 4.98014,-3.66274 7.46981,-5.49442 3.20168,-1.54953 6.40296,-3.09921 9.60405,-4.64912 2.40132,0.14109 4.80228,0.28198 7.20303,0.42265 1.95668,-0.0702 3.91302,-0.14067 5.86914,-0.21133 1.95668,0.35243 3.91302,0.70462 5.86914,1.05662 0.97847,0.70464 1.95664,1.40903 2.93456,2.11324 2.04561,0.84552 4.09088,1.6908 6.13592,2.53588 2.3124,3.24057 4.62443,6.4808 6.93625,9.72089 0.62277,3.02924 1.24523,6.05816 1.86746,9.08692 0.17811,3.52234 0.35596,7.04433 0.53355,10.56618 -1.42259,3.31101 -2.84538,6.62168 -4.26846,9.93221 -3.11222,5.35385 -6.22458,10.70728 -9.33726,16.0606 -5.42436,6.7627 -10.84876,13.52493 -16.27352,20.28707 -4.80185,4.36765 -9.60378,8.73492 -14.40607,13.10207 -3.20114,4.64942 -6.40243,9.29845 -9.60404,13.94736 -3.20114,5.28341 -6.40243,10.5664 -9.60404,15.84927 -0.35545,0.42287 -0.71115,0.84551 -1.06712,1.26795 -0.35544,-0.49289 -0.71114,-0.98597 -1.06712,-1.47927 z"
       inkscape:export-filename="/Users/Yuya/Desktop/berry/webcite/docs/icons/favicon.png"
       inkscape:export-xdpi="96"
       inkscape:export-ydpi="96" />
    <path
       style="fill:#ffffff;fill-opacity:1;stroke:none;stroke-width:0.235051px;stroke-linecap:butt;stroke-linejoin:miter;stroke-opacity:1"
       d="m 261.53641,170.69251 c -0.78349,1.2997 -2.50227,3.79027 -3.40627,4.83959 -0.904,1.04932 -0.99325,0.65712 -1.13222,-0.26747 -0.13897,-0.92458 -0.3276,-2.38139 -1.4548,-3.9242 -1.1272,-1.54281 -3.19308,-3.17144 -6.40974,-4.16804 -3.21666,-0.99661 -7.58374,-1.36089 -11.35288,-1.39186 -3.76913,-0.031 -6.9399,0.27142 -9.45904,0.3522 -2.51915,0.0808 -4.38657,-0.0601 -5.40934,-0.76442 -1.02277,-0.70432 -1.20062,-1.97223 -0.48912,-2.81767 0.7115,-0.84545 2.31215,-1.26809 5.02447,-1.69073 2.71231,-0.42264 6.53605,-0.84528 9.87083,-1.19749 3.33477,-0.35221 6.18035,-0.63397 8.22557,-1.3384 2.04522,-0.70443 3.29016,-1.83146 3.91263,-2.99363 0.62246,-1.16217 0.62246,-2.35965 -0.57793,-3.80371 -1.2004,-1.44407 -3.60136,-3.13463 -5.78007,-4.08567 -2.17871,-0.95104 -4.13505,-1.16236 -6.13592,-1.26804 -2.00087,-0.10568 -4.04614,-0.10568 -6.31381,0.17607 -2.26768,0.28175 -4.75757,0.84527 -6.44717,1.19749 -1.6896,0.35221 -2.57885,0.49309 -3.60148,0.21142 -1.02263,-0.28167 -2.17865,-0.98607 -2.6679,-1.65529 -0.48925,-0.66922 -0.3114,-1.30318 0.71136,-2.00769 1.02276,-0.70451 2.89018,-1.47936 6.18056,-2.00765 3.29037,-0.52828 8.00336,-0.81004 11.73831,-0.84524 3.73494,-0.0352 6.4916,0.17612 8.89264,0.95107 2.40104,0.77494 4.44629,2.11329 6.00247,3.45173 1.55619,1.33844 2.62329,2.67679 3.51252,4.12086 0.88923,1.44407 1.60062,2.99374 1.68946,4.57861 0.0888,1.58486 -0.4447,3.20497 -1.51176,4.47284 -1.06706,1.26786 -2.6677,2.18358 -3.46809,2.85292 -0.80039,0.66933 -0.80039,1.09197 0.089,1.47932 0.88942,0.38735 2.66792,0.73955 4.2686,1.40882 1.60068,0.66927 3.02346,1.65542 3.99018,2.47773 0.96672,0.82231 1.47737,1.48065 1.80881,1.86427 0.33144,0.38362 0.48357,0.49256 -0.29991,1.79226 z"
       id="path869"
       inkscape:path-effect="#path-effect871"
       inkscape:original-d="m 262.47175,169.50156 c -1.71855,2.49084 -3.43733,4.98141 -5.15641,7.47182 -0.089,-0.39201 -0.17824,-0.78421 -0.26777,-1.17664 -0.18838,-1.45672 -0.37701,-2.91353 -0.56592,-4.37061 -2.06573,-1.62851 -4.13161,-3.25714 -6.19787,-4.88607 -4.36708,-0.36409 -8.73416,-0.72837 -13.10177,-1.09288 -3.17062,0.30261 -6.34139,0.605 -9.51249,0.90719 -1.86722,-0.14068 -3.73464,-0.28156 -5.60235,-0.42265 -0.1776,-1.26776 -0.35545,-2.53567 -0.53356,-3.80382 1.60096,-0.42245 3.20161,-0.84509 4.80202,-1.26795 3.82418,-0.42245 7.64792,-0.84508 11.47149,-1.26794 2.84597,-0.28156 5.69155,-0.56332 8.53693,-0.8453 1.24526,-1.12687 2.4902,-2.25391 3.73491,-3.38117 2.6e-4,-1.19732 2.6e-4,-2.3948 0,-3.5925 -2.4008,-1.69041 -4.80176,-3.38098 -7.20304,-5.07177 -1.95615,-0.21112 -3.91249,-0.42244 -5.86913,-0.63398 -2.04508,2.2e-4 -4.09035,2.2e-4 -6.13592,0 -2.48972,0.56376 -4.97961,1.12728 -7.46981,1.6906 -0.88902,0.14109 -1.77827,0.28197 -2.66779,0.42265 -1.15581,-0.70422 -2.31182,-1.40863 -3.46812,-2.11325 0.17811,-0.63377 0.35596,-1.26773 0.53355,-1.9019 1.86775,-0.77467 3.73518,-1.5495 5.60236,-2.32457 4.71346,-0.28156 9.42645,-0.56332 14.13928,-0.84529 2.75704,0.21153 5.5137,0.42286 8.27016,0.63397 2.04561,1.33862 4.09086,2.67697 6.13591,4.01515 1.0674,1.33862 2.1345,2.67697 3.20135,4.01515 0.71169,1.54995 1.42308,3.09962 2.13423,4.64912 -0.53331,1.62039 -1.06686,3.2405 -1.60067,4.86044 -1.60044,0.91597 -3.20109,1.83168 -4.80202,2.74721 2.6e-4,0.42287 2.6e-4,0.84551 0,1.26794 1.77882,0.35243 3.55732,0.70463 5.33558,1.05662 1.42311,0.98641 2.8459,1.97256 4.26846,2.95853 0.51095,0.65858 1.0216,1.31692 1.53202,1.97507 0.15239,0.10916 0.30452,0.2181 0.45639,0.32683 z"
       sodipodi:nodetypes="cccccccccccccccccccccccccccccccccc"
       inkscape:export-filename="/Users/Yuya/Desktop/berry/webcite/docs/icons/favicon.png"
       inkscape:export-xdpi="96"
       inkscape:export-ydpi="96" />
    <path
       style="fill:#ffffff;fill-opacity:1;stroke:none;stroke-width:0.235051px;stroke-linecap:butt;stroke-linejoin:miter;stroke-opacity:1"
       d="m 247.39327,189.0387 c -0.95725,1.11512 -3.06598,3.28008 -5.17482,5.44516 -0.16897,0.17407 -0.33791,0.34811 -2.49587,0.309 -2.15796,-0.0391 -6.305,-0.29143 -9.26782,-0.76975 -2.96283,-0.47833 -4.74132,-1.18272 -6.51987,-2.028 -1.77854,-0.84529 -3.55704,-1.83144 -4.93546,-3.06413 -1.37842,-1.23268 -2.35659,-2.71192 -2.49008,-4.61393 -0.13349,-1.90201 0.5779,-4.22652 1.68952,-6.23418 1.11162,-2.00766 2.62335,-3.69822 5.02447,-5.07185 2.40112,-1.37363 5.69133,-2.43023 8.62597,-2.78239 2.93465,-0.35216 5.51346,4e-5 7.95897,0.70451 2.4455,0.70448 4.75754,1.76108 6.31369,2.95866 1.55615,1.19758 2.35647,2.53594 2.75656,3.80386 0.40009,1.26792 0.40009,2.4654 0.13329,3.59239 -0.2668,1.127 -0.80035,2.18359 -2.22312,3.38105 -1.42277,1.19745 -3.73481,2.53581 -5.82452,3.16982 -2.0897,0.63401 -3.95712,0.56356 -5.64673,0.10576 -1.68961,-0.4578 -3.20131,-1.30308 -4.57971,-2.25402 -1.37839,-0.95094 -2.62333,-2.00753 -3.0681,-2.95856 -0.44478,-0.95103 -0.0891,-1.79632 1.20045,-2.85302 1.28953,-1.0567 3.51264,-2.32462 5.60252,-2.71197 2.08988,-0.38736 4.04621,0.10572 5.00203,0.8102 0.95581,0.70448 0.91135,1.62018 0.64461,2.23643 -0.26673,0.61625 -0.75581,0.93322 -1.40051,1.25021 -0.6447,0.31699 -1.44502,0.63397 -1.97852,0.7925 -0.53351,0.15852 -0.80028,0.15852 -0.35292,0.37631 0.44735,0.2178 1.60874,0.65325 2.76469,0.44184 1.15594,-0.21141 2.30657,-1.06951 2.82978,-2.15128 0.5232,-1.08176 0.41902,-2.38738 -0.29226,-3.37361 -0.71129,-0.98624 -2.0299,-1.65291 -3.71191,-1.95111 -1.68201,-0.2982 -3.72728,-0.22776 -5.46136,-0.1221 -1.73408,0.10565 -3.15687,0.24653 -4.35751,0.92997 -1.20064,0.68344 -2.17879,1.90933 -2.9347,3.24779 -0.7559,1.33846 -1.28945,2.78925 -1.51173,3.93738 -0.22229,1.14813 -0.13336,1.99342 1.02284,2.85752 1.1562,0.86411 3.37927,1.74709 6.3337,2.3853 2.95442,0.63822 6.63986,1.03167 9.57709,0.81729 2.93724,-0.21437 5.12604,-1.03646 6.31793,-1.41488 1.1919,-0.37842 1.38666,-0.31329 0.42941,0.80183 z"
       id="path873"
       inkscape:path-effect="#path-effect875"
       inkscape:original-d="m 248.54498,187.98862 c -2.10872,2.16543 -6.32653,6.49524 -6.32653,6.49524 0,0 -0.33767,0.34834 -0.50691,0.52221 -4.14693,-0.25212 -8.29397,-0.50445 -12.44134,-0.75698 -1.7783,-0.70422 -3.55679,-1.40862 -5.33558,-2.11323 -1.7783,-0.98599 -3.55679,-1.97215 -5.33558,-2.95853 -0.97795,-1.47909 -1.95612,-2.95833 -2.93457,-4.43781 0.71169,-2.32439 1.42308,-4.6489 2.13423,-6.97367 1.51204,-1.69042 3.02376,-3.38098 4.53525,-5.07177 3.29059,-1.05643 6.5808,-2.11303 9.87082,-3.16986 2.57917,0.35242 5.15798,0.70462 7.73659,1.05662 2.31239,1.05685 4.62443,2.11345 6.93624,3.16986 0.80062,1.33862 1.60095,2.67697 2.40102,4.01515 2.6e-4,1.19773 2.6e-4,2.39521 0,3.5925 -0.5333,1.05685 -1.06685,2.11344 -1.60068,3.16986 -2.31186,1.33861 -4.6239,2.67697 -6.93624,4.01515 -1.86723,-0.0702 -3.73465,-0.14068 -5.60236,-0.21133 -1.51152,-0.84511 -3.02323,-1.69038 -4.53525,-2.53589 -1.24473,-1.05643 -2.48967,-2.11302 -3.7349,-3.16985 0.35597,-0.8451 0.71167,-1.69038 1.06711,-2.53588 2.22347,-1.26776 4.44658,-2.53568 6.66948,-3.80383 1.95668,0.49331 3.91301,0.98639 5.86914,1.47927 -0.0442,0.91595 -0.0886,1.83166 -0.13339,2.74721 -0.48884,0.31719 -0.97792,0.63417 -1.46729,0.95095 -0.80009,0.31721 -1.60041,0.63418 -2.40101,0.95096 -0.26652,2.1e-4 -0.53329,2.1e-4 -0.80034,0 1.16173,0.43568 2.32312,0.87113 3.48431,1.3064 1.15093,-0.85792 2.30156,-1.71602 3.45194,-2.57435 -0.10392,-1.30548 -0.2081,-2.6111 -0.31255,-3.91699 -1.3184,-0.6665 -2.63701,-1.33317 -3.95591,-2.00007 -2.04508,0.0706 -4.09035,0.14109 -6.13591,0.21133 -1.42259,0.14109 -2.84538,0.28197 -4.26847,0.42265 -0.97795,1.22618 -1.95609,2.45207 -2.93457,3.67783 -0.5333,1.45106 -1.06685,2.90185 -1.60067,4.35246 0.0891,0.84552 0.17812,1.6908 0.26678,2.53588 2.22346,0.88325 4.44654,1.76623 6.66947,2.64906 3.68593,0.39369 7.37137,0.78714 11.05677,1.1804 2.18919,-0.82192 4.37799,-1.644 6.56665,-2.46635 0.19501,0.0653 0.38975,0.13047 0.58425,0.1954 z"
       sodipodi:nodetypes="ccccccccccccccccccccccccccccccccccccccc"
       inkscape:export-filename="/Users/Yuya/Desktop/berry/webcite/docs/icons/favicon.png"
       inkscape:export-xdpi="96"
       inkscape:export-ydpi="96" />
    <path
       id="path877"
       style="fill:#ffffff;fill-opacity:1;stroke:none;stroke-width:0.235051px;stroke-linecap:butt;stroke-linejoin:miter;stroke-opacity:1"
       d="m 205.67078,141.23865 c -0.97751,-0.0165 -2.01113,0.1356 -3.34506,0.42616 -1.77857,0.38742 -4.09083,1.02137 -5.42484,2.43032 -1.33401,1.40893 -1.68965,3.5924 -0.93362,5.31824 0.75603,1.72584 2.62338,2.99391 4.89096,3.3284 2.2676,0.3345 4.93558,-0.26427 6.40283,-0.19367 1.46724,0.0706 1.73395,0.81012 2.04521,1.56736 0.31126,0.75727 0.66699,1.53199 0.88926,2.51816 0.22229,0.98617 0.3112,2.18354 0.26668,3.76846 -0.0445,1.58493 -0.22201,3.55736 -0.3554,6.30459 -0.13339,2.74724 -0.22271,6.26945 -0.48951,9.26323 -0.26679,2.99376 -0.71148,5.45904 -1.15594,6.58611 -0.44447,1.12707 -0.88906,0.91585 -2.08957,0.49317 -1.2005,-0.42267 -3.15638,-1.05683 -5.09059,-1.47952 -1.93419,-0.42272 -3.84635,-0.63394 -5.60279,-0.3522 -1.75644,0.28173 -3.357,1.05654 -4.62429,2.28934 -1.2673,1.23282 -2.20116,2.92324 -1.95649,4.5787 0.24467,1.65546 1.66747,3.27569 3.71284,4.36746 2.04537,1.09177 4.71355,1.65516 7.15901,1.86645 2.44548,0.21129 4.66846,0.0704 6.80258,-0.84538 2.13414,-0.91573 4.17936,-2.60614 5.64664,-4.50801 1.46729,-1.90187 2.35664,-4.01486 3.06807,-6.48029 0.71143,-2.46544 1.24496,-5.28327 1.55622,-8.5588 0.31127,-3.27553 0.39983,-7.00859 0.13308,-10.53068 -0.26676,-3.52208 -0.88908,-6.83297 -1.64494,-9.79153 -0.75586,-2.95856 -1.64508,-5.56493 -2.48984,-7.36122 -0.84475,-1.79628 -1.64509,-2.78236 -2.71216,-3.52206 -1.06707,-0.73971 -2.40066,-1.23266 -3.69015,-1.40884 -0.32237,-0.044 -0.64234,-0.0685 -0.96819,-0.0739 z m -0.84387,4.64856 c 0.2053,0.006 0.41115,0.0303 0.61124,0.0744 0.80039,0.17622 1.51188,0.66951 1.77854,0.96877 0.26666,0.29927 0.089,0.40488 -0.2445,0.59859 -0.33348,0.19372 -0.82296,0.47536 -1.44532,0.56345 -0.62236,0.0881 -1.37783,-0.0174 -2.00033,-0.10541 -0.6225,-0.0881 -1.11171,-0.15865 -1.20082,-0.47561 -0.0891,-0.31695 0.22183,-0.88045 0.82221,-1.23272 0.45029,-0.26421 1.06307,-0.40964 1.67898,-0.39144 z m -7.43652,40.50753 c 0.84489,5e-5 1.95622,0.17627 2.95666,0.44046 1.00044,0.2642 1.88959,0.61644 2.33407,1.00392 0.44448,0.38747 0.44464,0.81016 0.17795,1.07419 -0.26668,0.26403 -0.80023,0.36967 -1.40044,0.40492 -0.60021,0.0353 -1.26696,-2.1e-4 -1.88943,-0.10583 -0.62247,-0.10562 -1.2005,-0.28139 -1.77853,-0.5279 -0.57804,-0.24651 -1.15598,-0.56353 -1.55622,-0.89809 -0.40024,-0.33455 -0.62247,-0.6869 -0.44463,-0.95121 0.17784,-0.2643 0.75569,-0.4405 1.60057,-0.44046 z"
       inkscape:export-filename="/Users/Yuya/Desktop/berry/webcite/docs/icons/favicon.png"
       inkscape:export-xdpi="96"
       inkscape:export-ydpi="96" />
    <path
       style="fill:#a61c00;fill-opacity:1;stroke:none;stroke-width:0.235051px;stroke-linecap:butt;stroke-linejoin:miter;stroke-opacity:1"
       d="m 243.00362,193.84499 c 1.06709,-1.21509 3.06793,-3.53966 4.15735,-4.73719 1.08941,-1.19752 1.26727,-1.26796 1.97873,-1.40884 0.71146,-0.14087 1.9564,-0.35219 3.22355,-0.8453 1.26715,-0.4931 2.55656,-1.26794 3.37907,-1.90188 0.82252,-0.63393 1.17821,-1.12701 1.62284,-2.02511 0.44462,-0.8981 0.97816,-2.20121 0.98936,-3.36343 0.0112,-1.16221 -0.50011,-2.18359 -0.82238,-2.72517 -0.32227,-0.54158 -0.45567,-0.60322 0.33342,-1.73037 0.78908,-1.12715 2.50088,-3.31959 3.42348,-4.52149 0.92261,-1.20189 1.05599,-1.4132 1.25615,-1.16653 0.20015,0.24667 0.46692,0.95107 1.06718,2.48319 0.60027,1.53211 1.53397,3.89185 1.75622,6.60382 0.22224,2.71197 -0.26683,5.77602 -1.97863,8.17096 -1.71181,2.39494 -4.64631,4.12072 -8.47013,5.44151 -3.82383,1.32079 -8.53673,2.23649 -10.82671,2.64154 -2.28998,0.40504 -2.15659,0.29938 -1.0895,-0.91571 z"
       id="path1353"
       inkscape:path-effect="#path-effect1355"
       inkscape:original-d="m 242.06986,194.95447 c 2.00111,-2.32435 4.00195,-4.64892 6.00252,-6.97369 0.17812,-0.0702 0.35597,-0.14067 0.53356,-0.21132 1.24526,-0.21112 2.4902,-0.42244 3.73491,-0.63398 1.28972,-0.77465 2.57912,-1.54949 3.86829,-2.32455 0.35597,-0.49289 0.71167,-0.98596 1.06711,-1.47927 0.53383,-1.30297 1.06737,-2.60608 1.60068,-3.90948 -0.51107,-1.02122 -1.02239,-2.04259 -1.53398,-3.0642 -0.13312,-0.0614 -0.26651,-0.12306 -0.40017,-0.1849 1.71213,-2.19232 3.42393,-4.38476 5.13549,-6.57746 0.13366,-0.21112 0.26705,-0.42243 0.40018,-0.63397 0.26704,0.70464 0.53382,1.40904 0.80034,2.11324 0.934,2.36003 1.86771,4.71977 2.80117,7.07934 -0.48885,3.06447 -0.97792,6.12853 -1.46728,9.19258 -2.93437,1.72605 -5.86887,3.45183 -8.80371,5.17743 -4.71292,0.91596 -9.42582,1.83166 -14.13928,2.74721 0.13366,-0.10545 0.26704,-0.21111 0.40017,-0.31698 z"
       sodipodi:nodetypes="ccccccccccccccccc"
       inkscape:export-filename="/Users/Yuya/Desktop/berry/webcite/docs/icons/favicon.png"
       inkscape:export-xdpi="96"
       inkscape:export-ydpi="96" />
  </g>
</svg>
