<?xml version="1.0" encoding="UTF-8" standalone="no"?>
<svg
   xmlns:dc="http://purl.org/dc/elements/1.1/"
   xmlns:cc="http://creativecommons.org/ns#"
   xmlns:rdf="http://www.w3.org/1999/02/22-rdf-syntax-ns#"
   xmlns:svg="http://www.w3.org/2000/svg"
   xmlns="http://www.w3.org/2000/svg"
   xmlns:sodipodi="http://sodipodi.sourceforge.net/DTD/sodipodi-0.dtd"
   xmlns:inkscape="http://www.inkscape.org/namespaces/inkscape"
   width="246.97824mm"
   height="158.35667mm"
   viewBox="0 0 246.97824 158.35667"
   version="1.1"
   id="svg8"
   inkscape:version="1.0.2 (e86c870879, 2021-01-15, custom)"
   sodipodi:docname="logo_inverse.svg">
  <defs
     id="defs2">
    <inkscape:path-effect
       effect="bspline"
       id="path-effect972"
       is_visible="true"
       lpeversion="1"
       weight="33.333333"
       steps="2"
       helper_size="0"
       apply_no_weight="true"
       apply_with_weight="true"
       only_selected="false" />
    <inkscape:path-effect
       effect="bspline"
       id="path-effect968"
       is_visible="true"
       lpeversion="1"
       weight="33.333333"
       steps="2"
       helper_size="0"
       apply_no_weight="true"
       apply_with_weight="true"
       only_selected="false" />
    <inkscape:path-effect
       effect="bspline"
       id="path-effect964"
       is_visible="true"
       lpeversion="1"
       weight="33.333333"
       steps="2"
       helper_size="0"
       apply_no_weight="true"
       apply_with_weight="true"
       only_selected="false" />
    <inkscape:path-effect
       effect="bspline"
       id="path-effect960"
       is_visible="true"
       lpeversion="1"
       weight="33.333333"
       steps="2"
       helper_size="0"
       apply_no_weight="true"
       apply_with_weight="true"
       only_selected="false" />
    <inkscape:path-effect
       effect="bspline"
       id="path-effect956"
       is_visible="true"
       lpeversion="1"
       weight="33.333333"
       steps="2"
       helper_size="0"
       apply_no_weight="true"
       apply_with_weight="true"
       only_selected="false" />
    <inkscape:path-effect
       effect="bspline"
       id="path-effect952"
       is_visible="true"
       lpeversion="1"
       weight="33.333333"
       steps="2"
       helper_size="0"
       apply_no_weight="true"
       apply_with_weight="true"
       only_selected="false" />
    <inkscape:path-effect
       effect="bspline"
       id="path-effect948"
       is_visible="true"
       lpeversion="1"
       weight="33.333333"
       steps="2"
       helper_size="0"
       apply_no_weight="true"
       apply_with_weight="true"
       only_selected="false" />
    <inkscape:path-effect
       effect="bspline"
       id="path-effect944"
       is_visible="true"
       lpeversion="1"
       weight="33.333333"
       steps="2"
       helper_size="0"
       apply_no_weight="true"
       apply_with_weight="true"
       only_selected="false" />
    <inkscape:path-effect
       effect="bspline"
       id="path-effect940"
       is_visible="true"
       lpeversion="1"
       weight="33.333333"
       steps="2"
       helper_size="0"
       apply_no_weight="true"
       apply_with_weight="true"
       only_selected="false" />
    <inkscape:path-effect
       effect="bspline"
       id="path-effect936"
       is_visible="true"
       lpeversion="1"
       weight="33.333333"
       steps="2"
       helper_size="0"
       apply_no_weight="true"
       apply_with_weight="true"
       only_selected="false" />
    <inkscape:path-effect
       effect="bspline"
       id="path-effect932"
       is_visible="true"
       lpeversion="1"
       weight="33.333333"
       steps="2"
       helper_size="0"
       apply_no_weight="true"
       apply_with_weight="true"
       only_selected="false" />
    <inkscape:path-effect
       effect="bspline"
       id="path-effect928"
       is_visible="true"
       lpeversion="1"
       weight="33.333333"
       steps="2"
       helper_size="0"
       apply_no_weight="true"
       apply_with_weight="true"
       only_selected="false" />
    <inkscape:path-effect
       effect="bspline"
       id="path-effect924"
       is_visible="true"
       lpeversion="1"
       weight="33.333333"
       steps="2"
       helper_size="0"
       apply_no_weight="true"
       apply_with_weight="true"
       only_selected="false" />
    <inkscape:path-effect
       effect="bspline"
       id="path-effect920"
       is_visible="true"
       lpeversion="1"
       weight="33.333333"
       steps="2"
       helper_size="0"
       apply_no_weight="true"
       apply_with_weight="true"
       only_selected="false" />
    <inkscape:path-effect
       effect="bspline"
       id="path-effect915"
       is_visible="true"
       lpeversion="1"
       weight="33.333333"
       steps="2"
       helper_size="0"
       apply_no_weight="true"
       apply_with_weight="true"
       only_selected="false" />
    <inkscape:path-effect
       effect="bspline"
       id="path-effect911"
       is_visible="true"
       lpeversion="1"
       weight="33.333333"
       steps="2"
       helper_size="0"
       apply_no_weight="true"
       apply_with_weight="true"
       only_selected="false" />
    <inkscape:path-effect
       effect="bspline"
       id="path-effect907"
       is_visible="true"
       lpeversion="1"
       weight="33.333333"
       steps="2"
       helper_size="0"
       apply_no_weight="true"
       apply_with_weight="true"
       only_selected="false" />
    <inkscape:path-effect
       effect="bspline"
       id="path-effect903"
       is_visible="true"
       lpeversion="1"
       weight="33.333333"
       steps="2"
       helper_size="0"
       apply_no_weight="true"
       apply_with_weight="true"
       only_selected="false" />
    <inkscape:path-effect
       effect="bspline"
       id="path-effect898"
       is_visible="true"
       lpeversion="1"
       weight="33.333333"
       steps="2"
       helper_size="0"
       apply_no_weight="true"
       apply_with_weight="true"
       only_selected="false" />
    <inkscape:path-effect
       effect="bspline"
       id="path-effect894"
       is_visible="true"
       lpeversion="1"
       weight="33.333333"
       steps="2"
       helper_size="0"
       apply_no_weight="true"
       apply_with_weight="true"
       only_selected="false" />
    <inkscape:path-effect
       effect="bspline"
       id="path-effect889"
       is_visible="true"
       lpeversion="1"
       weight="33.333333"
       steps="2"
       helper_size="0"
       apply_no_weight="true"
       apply_with_weight="true"
       only_selected="false" />
    <inkscape:path-effect
       effect="bspline"
       id="path-effect884"
       is_visible="true"
       lpeversion="1"
       weight="33.333333"
       steps="2"
       helper_size="0"
       apply_no_weight="true"
       apply_with_weight="true"
       only_selected="false" />
    <inkscape:path-effect
       effect="bspline"
       id="path-effect880"
       is_visible="true"
       lpeversion="1"
       weight="33.333333"
       steps="2"
       helper_size="0"
       apply_no_weight="true"
       apply_with_weight="true"
       only_selected="false" />
    <inkscape:path-effect
       effect="bspline"
       id="path-effect875"
       is_visible="true"
       lpeversion="1"
       weight="33.333333"
       steps="2"
       helper_size="0"
       apply_no_weight="true"
       apply_with_weight="true"
       only_selected="false" />
    <inkscape:path-effect
       effect="bspline"
       id="path-effect871"
       is_visible="true"
       lpeversion="1"
       weight="33.333333"
       steps="2"
       helper_size="0"
       apply_no_weight="true"
       apply_with_weight="true"
       only_selected="false" />
    <inkscape:path-effect
       effect="bspline"
       id="path-effect867"
       is_visible="true"
       lpeversion="1"
       weight="33.333333"
       steps="2"
       helper_size="0"
       apply_no_weight="true"
       apply_with_weight="true"
       only_selected="false" />
    <inkscape:path-effect
       effect="bspline"
       id="path-effect979"
       is_visible="true"
       lpeversion="1"
       weight="33.333333"
       steps="2"
       helper_size="0"
       apply_no_weight="true"
       apply_with_weight="true"
       only_selected="false" />
    <inkscape:path-effect
       effect="bspline"
       id="path-effect969"
       is_visible="true"
       lpeversion="1"
       weight="33.333333"
       steps="2"
       helper_size="0"
       apply_no_weight="true"
       apply_with_weight="true"
       only_selected="false" />
    <inkscape:path-effect
       effect="bspline"
       id="path-effect965"
       is_visible="true"
       lpeversion="1"
       weight="33.333333"
       steps="2"
       helper_size="0"
       apply_no_weight="true"
       apply_with_weight="true"
       only_selected="false" />
    <inkscape:path-effect
       effect="bspline"
       id="path-effect961"
       is_visible="true"
       lpeversion="1"
       weight="33.333333"
       steps="2"
       helper_size="0"
       apply_no_weight="true"
       apply_with_weight="true"
       only_selected="false" />
    <inkscape:path-effect
       effect="bspline"
       id="path-effect957"
       is_visible="true"
       lpeversion="1"
       weight="33.333333"
       steps="2"
       helper_size="0"
       apply_no_weight="true"
       apply_with_weight="true"
       only_selected="false" />
    <inkscape:path-effect
       effect="bspline"
       id="path-effect887"
       is_visible="true"
       lpeversion="1"
       weight="33.333333"
       steps="2"
       helper_size="0"
       apply_no_weight="true"
       apply_with_weight="true"
       only_selected="false" />
    <inkscape:path-effect
       effect="bspline"
       id="path-effect883"
       is_visible="true"
       lpeversion="1"
       weight="33.333333"
       steps="2"
       helper_size="0"
       apply_no_weight="true"
       apply_with_weight="true"
       only_selected="false" />
    <inkscape:path-effect
       effect="bspline"
       id="path-effect879"
       is_visible="true"
       lpeversion="1"
       weight="33.333333"
       steps="2"
       helper_size="0"
       apply_no_weight="true"
       apply_with_weight="true"
       only_selected="false" />
    <inkscape:path-effect
       effect="bspline"
       id="path-effect861"
       is_visible="true"
       lpeversion="1"
       weight="33.333333"
       steps="2"
       helper_size="0"
       apply_no_weight="true"
       apply_with_weight="true"
       only_selected="false" />
    <inkscape:path-effect
       effect="bspline"
       id="path-effect853"
       is_visible="true"
       lpeversion="1"
       weight="33.333333"
       steps="2"
       helper_size="0"
       apply_no_weight="true"
       apply_with_weight="true"
       only_selected="false" />
    <inkscape:path-effect
       effect="bspline"
       id="path-effect849"
       is_visible="true"
       lpeversion="1"
       weight="33.333333"
       steps="2"
       helper_size="0"
       apply_no_weight="true"
       apply_with_weight="true"
       only_selected="false" />
    <inkscape:path-effect
       effect="bspline"
       id="path-effect843"
       is_visible="true"
       lpeversion="1"
       weight="33.333333"
       steps="2"
       helper_size="0"
       apply_no_weight="true"
       apply_with_weight="true"
       only_selected="false" />
    <inkscape:path-effect
       effect="bspline"
       id="path-effect839"
       is_visible="true"
       lpeversion="1"
       weight="33.333333"
       steps="2"
       helper_size="0"
       apply_no_weight="true"
       apply_with_weight="true"
       only_selected="false" />
  </defs>
  <sodipodi:namedview
     id="base"
     pagecolor="#ffffff"
     bordercolor="#666666"
     borderopacity="1.0"
     inkscape:pageopacity="0.0"
     inkscape:pageshadow="2"
     inkscape:zoom="0.49497475"
     inkscape:cx="372.84505"
     inkscape:cy="375.84374"
     inkscape:document-units="mm"
     inkscape:current-layer="layer1"
     inkscape:document-rotation="0"
     showgrid="true"
     fit-margin-top="0"
     fit-margin-left="0"
     fit-margin-right="0"
     fit-margin-bottom="0"
     inkscape:window-width="1366"
     inkscape:window-height="705"
     inkscape:window-x="-8"
     inkscape:window-y="-8"
     inkscape:window-maximized="1"
     inkscape:snap-global="false">
    <inkscape:grid
       type="xygrid"
       id="grid833"
       originx="-148.83036"
       originy="-111.55956" />
  </sodipodi:namedview>
  <metadata
     id="metadata5">
    <rdf:RDF>
      <cc:Work
         rdf:about="">
        <dc:format>image/svg+xml</dc:format>
        <dc:type
           rdf:resource="http://purl.org/dc/dcmitype/StillImage" />
        <dc:title />
      </cc:Work>
    </rdf:RDF>
  </metadata>
  <g
     inkscape:label="レイヤー 1"
     inkscape:groupmode="layer"
     id="layer1"
     transform="translate(-148.83036,-111.55956)">
    <path
       style="fill:#ffffff;stroke:none;stroke-width:0.264583px;stroke-linecap:butt;stroke-linejoin:miter;stroke-opacity:1;fill-opacity:1"
       d="m 208.30371,266.57498 c -0.89094,-2.53907 -2.31637,-6.99356 -4.89999,-12.96265 -2.58361,-5.96909 -6.32531,-13.45249 -12.82894,-24.2325 -6.50362,-10.78002 -15.76879,-24.85594 -22.18329,-34.78951 -6.41451,-9.93357 -9.97803,-15.7243 -12.91804,-21.06973 -2.94001,-5.34544 -5.2563,-10.24528 -6.10274,-15.14532 -0.84644,-4.90004 -0.22282,-9.79988 0.4899,-14.29896 0.71272,-4.49909 1.51451,-8.59715 3.60816,-12.96267 2.09365,-4.36553 5.479,-8.99811 9.53271,-12.47269 4.0537,-3.47458 8.77537,-5.79087 13.31909,-6.45897 4.54373,-0.6681 8.90904,0.31187 13.31902,2.71742 4.40998,2.40555 8.86439,6.23634 12.0716,9.66636 3.20721,3.43002 5.16714,6.45901 6.50356,8.10708 1.33641,1.64808 2.04912,1.91534 2.49458,2.09354 0.44546,0.17821 0.62361,0.26729 2.138,-1.51461 1.51438,-1.78189 4.3652,-5.4345 7.03794,-8.41906 2.67274,-2.98455 5.16721,-5.30084 8.01814,-7.43904 2.85094,-2.13819 6.05811,-4.09813 8.86457,-4.98899 2.80646,-0.89087 5.21184,-0.71269 7.39454,-0.66816 2.18271,0.0445 4.14265,-0.0446 6.10267,0.13366 1.96003,0.17823 3.91996,0.62367 5.38994,1.29194 1.46997,0.66828 2.44994,1.55916 3.96451,2.53912 1.51456,0.97995 3.56359,2.04901 5.74625,4.63273 2.18265,2.58372 4.49894,6.68177 5.96887,10.6463 1.46992,3.96453 2.09354,7.79531 2.49442,11.93802 0.40089,4.14271 0.57906,8.59711 -0.0446,12.91795 -0.62368,4.32084 -2.04909,8.50798 -4.32091,13.98706 -2.27182,5.47907 -5.3899,12.24976 -9.66626,19.91155 -4.27636,7.66179 -9.71074,16.21425 -14.83343,23.25237 -5.1227,7.03812 -9.93346,12.56159 -13.94255,18.26343 -4.0091,5.70185 -7.21626,11.58166 -10.42353,17.86257 -3.20727,6.28091 -6.41444,12.96252 -8.19623,16.57063 -1.7818,3.60812 -2.13815,4.14265 -2.4944,4.09823 -0.35626,-0.0444 -0.71261,-0.66804 -1.60355,-3.2071 z"
       id="path865"
       inkscape:path-effect="#path-effect867"
       inkscape:original-d="m 208.83811,268.49009 c -1.42517,-4.45423 -2.85061,-8.90872 -4.27631,-13.36347 -3.74158,-7.48344 -7.48328,-14.96683 -11.22532,-22.45064 -9.26526,-14.07621 -18.53042,-28.15213 -27.79603,-42.22859 -3.5634,-5.79069 -7.12692,-11.58141 -10.69078,-17.37252 -2.31612,-4.89977 -4.63241,-9.79961 -6.94901,-14.69982 0.62391,-4.89978 1.24752,-9.79962 1.87089,-14.69983 0.80209,-4.09794 1.60388,-8.196 2.40542,-12.29439 3.38575,-4.6325 6.7711,-9.26508 10.15625,-13.89802 4.72212,-2.31612 9.44378,-4.63241 14.16528,-6.94901 4.36575,0.98028 8.73107,1.96024 13.09621,2.93997 4.45484,3.8312 8.90925,7.66199 13.36347,11.49259 1.96028,3.02938 3.92022,6.05837 5.87993,9.08716 0.713,0.26754 1.4257,0.53481 2.13816,0.80181 0.17845,0.0894 0.35662,0.17844 0.53454,0.26727 2.85119,-3.65249 5.70201,-7.3051 8.55262,-10.95805 2.49483,-2.31612 4.9893,-4.63241 7.48355,-6.94901 3.20756,-1.95975 6.41473,-3.91969 9.6217,-5.87993 2.40574,0.17845 4.81112,0.35663 7.21628,0.53454 1.96028,-0.0888 3.92022,-0.17791 5.87993,-0.26727 1.96028,0.44573 3.92022,0.89116 5.87993,1.33635 0.98027,0.89118 1.96024,1.78206 2.93996,2.6727 2.04937,1.06936 4.0984,2.13842 6.1472,3.20723 2.31665,4.09848 4.63294,8.19653 6.94901,12.2944 0.62391,3.8312 1.24752,7.66199 1.87089,11.49259 0.17844,4.45484 0.35662,8.90924 0.53453,13.36347 -1.4252,4.18757 -2.85061,8.37471 -4.27631,12.56167 -3.11794,6.77123 -6.23602,13.54192 -9.35443,20.31248 -5.43433,8.55306 -10.8687,17.10552 -16.30344,25.65788 -4.81068,5.52394 -9.62144,11.0474 -14.43256,16.57071 -3.20703,5.88031 -6.4142,11.76012 -9.6217,17.63979 -3.20703,6.68213 -6.4142,13.36374 -9.6217,20.04521 -0.3561,0.53482 -0.71246,1.06934 -1.06908,1.60362 -0.3561,-0.62338 -0.71245,-1.24699 -1.06908,-1.87089 z" />
    <path
       style="fill:#a61c00;stroke:none;stroke-width:0.264583px;stroke-linecap:butt;stroke-linejoin:miter;stroke-opacity:1;fill-opacity:1"
       d="m 261.74339,186.31235 c -0.78495,1.64382 -2.50689,4.79375 -3.41253,6.12081 -0.90565,1.32707 -0.99506,0.83105 -1.13428,-0.33831 -0.13922,-1.16936 -0.3282,-3.01184 -1.45748,-4.96309 -1.12927,-1.95125 -3.19895,-4.01104 -6.42152,-5.27148 -3.22258,-1.26045 -7.59769,-1.72116 -11.37376,-1.76034 -3.77607,-0.0392 -6.95268,0.34328 -9.47644,0.44544 -2.52377,0.10216 -4.39462,-0.076 -5.41928,-0.9668 -1.02466,-0.89078 -1.20284,-2.49436 -0.49004,-3.56362 0.7128,-1.06925 2.31639,-1.60378 5.0337,-2.13832 2.71731,-0.53453 6.54809,-1.06906 9.88899,-1.51451 3.3409,-0.44546 6.19171,-0.80181 8.24067,-1.6927 2.04896,-0.89089 3.29619,-2.31629 3.91983,-3.78617 0.62364,-1.46987 0.62364,-2.98437 -0.57896,-4.81074 -1.20259,-1.82637 -3.60798,-3.96449 -5.79069,-5.16731 -2.18271,-1.20281 -4.14265,-1.47008 -6.1472,-1.60373 -2.00456,-0.13366 -4.05359,-0.13366 -6.32545,0.22268 -2.27186,0.35634 -4.76632,1.06905 -6.45903,1.51451 -1.6927,0.44545 -2.58358,0.62363 -3.60808,0.26739 -1.0245,-0.35623 -2.18264,-1.24712 -2.6728,-2.09349 -0.49016,-0.84638 -0.31198,-1.64817 0.71264,-2.5392 1.02462,-0.89103 2.89547,-1.871 6.19192,-2.53916 3.29644,-0.66816 8.0181,-1.02451 11.75993,-1.06903 3.74182,-0.0445 6.50354,0.22274 8.90899,1.20285 2.40546,0.98011 4.45448,2.67278 6.01352,4.36554 1.55903,1.69276 2.62809,3.38543 3.51896,5.2118 0.89086,1.82637 1.60357,3.7863 1.69257,5.79078 0.089,2.00448 -0.44553,4.0535 -1.51457,5.65702 -1.06905,1.60352 -2.67263,2.76166 -3.47447,3.60817 -0.80183,0.84651 -0.80183,1.38104 0.0892,1.87094 0.89107,0.48991 2.67284,0.93535 4.27645,1.7818 1.60362,0.84645 3.02903,2.09368 3.99751,3.13367 0.96848,1.04 1.48008,1.87262 1.81214,2.35782 0.33206,0.48519 0.48447,0.62297 -0.30048,2.26678 z"
       id="path869"
       inkscape:path-effect="#path-effect871"
       inkscape:original-d="m 262.68047,184.80608 c -1.72171,3.15026 -3.44365,6.30019 -5.16589,9.44991 -0.0892,-0.49579 -0.17857,-0.99182 -0.26826,-1.48815 -0.18873,-1.84237 -0.37771,-3.68485 -0.56696,-5.52768 -2.06953,-2.05965 -4.13921,-4.11944 -6.20927,-6.17961 -4.37511,-0.46048 -8.75022,-0.9212 -13.12586,-1.38221 -3.17645,0.38272 -6.35305,0.76517 -9.52998,1.14736 -1.87066,-0.17792 -3.74151,-0.3561 -5.61266,-0.53454 -0.17792,-1.60339 -0.3561,-3.20697 -0.53454,-4.81085 1.60391,-0.53429 3.2075,-1.06882 4.81085,-1.60362 3.83121,-0.53429 7.66199,-1.06881 11.49259,-1.60362 2.8512,-0.3561 5.70201,-0.71245 8.55262,-1.06908 1.24755,-1.4252 2.49478,-2.85061 3.74178,-4.27631 2.6e-4,-1.51429 2.6e-4,-3.02879 0,-4.54358 -2.40521,-2.13793 -4.81059,-4.27605 -7.21628,-6.41447 -1.95975,-0.26701 -3.91969,-0.53427 -5.87993,-0.80181 -2.04884,2.7e-4 -4.09787,2.7e-4 -6.1472,0 -2.4943,0.713 -4.98876,1.42571 -7.48354,2.13816 -0.89066,0.17845 -1.78154,0.35662 -2.6727,0.53454 -1.15793,-0.89065 -2.31607,-1.78154 -3.4745,-2.6727 0.17844,-0.80156 0.35662,-1.60335 0.53454,-2.40542 1.87118,-0.97975 3.74204,-1.95971 5.61266,-2.93997 4.72212,-0.3561 9.44378,-0.71245 14.16528,-1.06907 2.76211,0.26753 5.52383,0.5348 8.28536,0.8018 2.04937,1.69301 4.09839,3.38568 6.1472,5.07812 1.06936,1.69301 2.13842,3.38568 3.20723,5.07812 0.713,1.96029 1.4257,3.92022 2.13816,5.87993 -0.53429,2.04938 -1.06882,4.0984 -1.60362,6.1472 -1.60338,1.15846 -3.20697,2.3166 -4.81085,3.47451 2.6e-4,0.53481 2.6e-4,1.06934 0,1.60361 1.78209,0.44573 3.56386,0.89117 5.34539,1.33635 1.42573,1.24755 2.85114,2.49478 4.27631,3.74177 0.51189,0.83293 1.02348,1.66556 1.53484,2.49795 0.15267,0.13806 0.30508,0.27584 0.45723,0.41336 z"
       sodipodi:nodetypes="cccccccccccccccccccccccccccccccccc" />
    <path
       style="fill:#a61c00;stroke:none;stroke-width:0.264583px;stroke-linecap:butt;stroke-linejoin:miter;stroke-opacity:1;fill-opacity:1"
       d="m 247.57424,209.51552 c -0.95904,1.41037 -3.07159,4.14841 -5.18431,6.88667 -0.16928,0.22016 -0.33858,0.44034 -2.50048,0.39085 -2.1619,-0.0495 -6.31656,-0.36862 -9.28483,-0.97357 -2.96827,-0.60496 -4.75003,-1.49584 -6.53185,-2.5649 -1.78182,-1.06906 -3.56358,-2.31629 -4.94455,-3.87533 -1.38097,-1.55904 -2.36094,-3.42989 -2.49468,-5.83541 -0.13373,-2.40552 0.57897,-5.34542 1.69262,-7.88457 1.11364,-2.53915 2.62814,-4.67727 5.03368,-6.41459 2.40554,-1.73732 5.7018,-3.07364 8.64187,-3.51903 2.94008,-0.44539 5.52363,5e-5 7.97363,0.89103 2.45,0.89097 4.76629,2.22729 6.32529,3.74191 1.559,1.51461 2.36079,3.20729 2.76162,4.81089 0.40083,1.6036 0.40083,3.1181 0.13353,4.54349 -0.2673,1.42538 -0.80183,2.7617 -2.22724,4.27616 -1.42541,1.51446 -3.74171,3.20714 -5.83522,4.00897 -2.09351,0.80183 -3.96436,0.71274 -5.65707,0.13375 -1.69271,-0.579 -3.2072,-1.64805 -4.58814,-2.85075 -1.38093,-1.2027 -2.62816,-2.53902 -3.07376,-3.7418 -0.4456,-1.20278 -0.0892,-2.27183 1.20263,-3.60829 1.29188,-1.33647 3.51907,-2.94005 5.61284,-3.42997 2.09377,-0.48993 4.0537,0.13369 5.01126,1.02467 0.95756,0.89099 0.91301,2.04912 0.64576,2.82853 -0.26725,0.77941 -0.75723,1.1803 -1.40311,1.5812 -0.64588,0.4009 -1.44767,0.80179 -1.98213,1.00227 -0.53447,0.20048 -0.80173,0.20048 -0.35354,0.47594 0.44819,0.27546 1.61171,0.82619 2.76975,0.55883 1.15803,-0.26735 2.31077,-1.35262 2.83497,-2.72081 0.5242,-1.36818 0.41983,-3.01944 -0.29276,-4.26677 -0.71259,-1.24732 -2.03363,-2.09049 -3.71873,-2.46764 -1.68511,-0.37715 -3.73414,-0.28806 -5.47142,-0.15443 -1.73728,0.13362 -3.16269,0.3118 -4.36555,1.17621 -1.20286,0.86441 -2.1828,2.41483 -2.94009,4.10763 -0.75728,1.6928 -1.2918,3.52767 -1.51449,4.97973 -0.22269,1.45206 -0.1336,2.52112 1.02474,3.614 1.15833,1.09288 3.38549,2.20963 6.34535,3.0168 2.95985,0.80716 6.65207,1.30478 9.59467,1.03366 2.94261,-0.27112 5.13543,-1.31084 6.32955,-1.78945 1.19413,-0.47862 1.38923,-0.39624 0.43019,1.01412 z"
       id="path873"
       inkscape:path-effect="#path-effect875"
       inkscape:original-d="m 248.72809,208.18741 c -2.1126,2.7387 -6.33816,8.21478 -6.33816,8.21478 0,0 -0.33829,0.44057 -0.50784,0.66047 -4.15456,-0.31887 -8.30922,-0.638 -12.46422,-0.95739 -1.78157,-0.89065 -3.56333,-1.78153 -5.34539,-2.67269 -1.78157,-1.24702 -3.56333,-2.49425 -5.34539,-3.74177 -0.97975,-1.87066 -1.95972,-3.74151 -2.93997,-5.61267 0.713,-2.93975 1.4257,-5.87966 2.13816,-8.81989 1.51482,-2.13793 3.02932,-4.27605 4.54358,-6.41447 3.29665,-1.33611 6.59291,-2.67243 9.88897,-4.00904 2.58392,0.44572 5.16747,0.89116 7.75082,1.33635 2.31664,1.33664 4.63293,2.67296 6.949,4.00904 0.80209,1.69301 1.60389,3.38568 2.40543,5.07812 2.6e-4,1.51482 2.6e-4,3.02932 0,4.54358 -0.53428,1.33664 -1.06881,2.67296 -1.60362,4.00905 -2.31611,1.693 -4.63241,3.38568 -6.949,5.07812 -1.87066,-0.0888 -3.74151,-0.17792 -5.61266,-0.26727 -1.5143,-1.06884 -3.02879,-2.13789 -4.54359,-3.20724 -1.24702,-1.33611 -2.49425,-2.67243 -3.74177,-4.00904 0.35663,-1.06883 0.71298,-2.13789 1.06908,-3.20723 2.22755,-1.60339 4.45475,-3.20697 6.68174,-4.81086 1.96028,0.62391 3.92021,1.24753 5.87993,1.87089 -0.0443,1.15845 -0.0888,2.31658 -0.13363,3.47451 -0.48974,0.40117 -0.97972,0.80206 -1.46999,1.20271 -0.80156,0.40118 -1.60335,0.80207 -2.40543,1.20271 -0.26701,2.7e-4 -0.53427,2.7e-4 -0.80181,0 1.16387,0.55103 2.32739,1.10176 3.49072,1.65226 1.15305,-1.08505 2.30579,-2.17032 3.45829,-3.25588 -0.10411,-1.6511 -0.20849,-3.30236 -0.31313,-4.95398 -1.32082,-0.84294 -2.64186,-1.68611 -3.96318,-2.52956 -2.04884,0.0893 -4.09787,0.17844 -6.1472,0.26727 -1.4252,0.17844 -2.85061,0.35662 -4.27631,0.53454 -0.97975,1.5508 -1.95969,3.10123 -2.93997,4.6515 -0.53428,1.83522 -1.06881,3.67009 -1.60361,5.50474 0.0893,1.06936 0.17844,2.13842 0.26727,3.20723 2.22755,1.11708 4.45471,2.23382 6.68173,3.35037 3.69271,0.49791 7.38493,0.99552 11.0771,1.4929 2.19322,-1.03952 4.38604,-2.07924 6.57873,-3.11929 0.19537,0.0826 0.39046,0.16501 0.58532,0.24713 z"
       sodipodi:nodetypes="ccccccccccccccccccccccccccccccccccccccc" />
    <path
       id="path877"
       style="fill:#a61c00;stroke:none;stroke-width:0.999999px;stroke-linecap:butt;stroke-linejoin:miter;stroke-opacity:1;fill-opacity:1"
       d="m 643.00195,541.59375 c -3.70135,-0.0791 -7.6151,0.64819 -12.66601,2.03711 -6.73452,1.85193 -15.48983,4.88226 -20.54102,11.61719 -5.05122,6.73489 -6.39784,17.17215 -3.53515,25.42187 2.86269,8.24969 9.93339,14.31123 18.51953,15.91016 8.58618,1.59893 18.68846,-1.26329 24.24414,-0.92578 5.55568,0.3374 6.56557,3.87242 7.74414,7.49218 1.17861,3.61981 2.52556,7.3231 3.36719,12.03711 0.8417,4.71398 1.17833,10.43757 1.00976,18.01368 -0.16841,7.57613 -0.84064,17.00463 -1.3457,30.13671 -0.5051,13.13209 -0.84329,29.96869 -1.85352,44.2793 -1.01019,14.31058 -2.694,26.0949 -4.37695,31.48242 -1.68299,5.38757 -3.3664,4.37785 -7.91211,2.35742 -4.54568,-2.02041 -11.95157,-5.05176 -19.27539,-7.07226 -7.32378,-2.02065 -14.56412,-3.03032 -21.21484,-1.68359 -6.65073,1.34672 -12.71121,5.0504 -17.50977,10.94335 -4.7986,5.89301 -8.33464,13.97345 -7.4082,21.88672 0.92643,7.91331 6.31381,15.65819 14.05859,20.87696 7.74474,5.21881 17.84773,7.91187 27.10742,8.92187 9.25973,1.00997 17.677,0.33625 25.75782,-4.04101 8.08084,-4.3773 15.82502,-12.45767 21.38085,-21.54883 5.55587,-9.09116 8.92337,-19.19151 11.61719,-30.97656 2.69382,-11.7851 4.71401,-25.25466 5.89258,-40.91211 1.17861,-15.65741 1.51395,-33.50191 0.50391,-50.33789 -1.01008,-16.83599 -3.36647,-32.66246 -6.22852,-46.80469 -2.86205,-14.14228 -6.22908,-26.60106 -9.42773,-35.1875 -3.19862,-8.58645 -6.22911,-13.30008 -10.26954,-16.83594 -4.04041,-3.5359 -9.09003,-5.89222 -13.97265,-6.73437 -1.22067,-0.21054 -2.43223,-0.32716 -3.66602,-0.35352 z m -3.19531,22.2207 c 0.77737,0.029 1.55679,0.14489 2.31445,0.35547 3.03064,0.84234 5.72468,3.20034 6.73438,4.63086 1.0097,1.43052 0.33691,1.93535 -0.92578,2.86133 -1.2627,0.92598 -3.1161,2.27228 -5.47266,2.69336 -2.35656,0.42108 -5.21715,-0.083 -7.57422,-0.50391 -2.35706,-0.4209 -4.20947,-0.75834 -4.54687,-2.27344 -0.3374,-1.51508 0.83995,-4.20865 3.11328,-5.89257 1.705,-1.26295 4.0253,-1.95812 6.35742,-1.8711 z m -28.1582,193.63086 c 3.19915,2.1e-4 7.40718,0.84259 11.19531,2.10547 3.78813,1.26288 7.15487,2.94666 8.83789,4.79883 1.68302,1.85217 1.68362,3.87267 0.67383,5.13477 -1.00979,1.26209 -3.03005,1.76705 -5.30274,1.93554 -2.27268,0.16849 -4.79734,-9.8e-4 -7.15429,-0.50586 -2.35696,-0.50487 -4.54566,-1.34508 -6.73438,-2.52344 -2.18871,-1.17835 -4.37706,-2.69375 -5.89258,-4.29296 -1.51551,-1.59922 -2.35697,-3.28348 -1.68359,-4.54688 0.67338,-1.2634 2.8614,-2.10568 6.06055,-2.10547 z"
       transform="matrix(0.26458333,0,0,0.26458333,35.647462,5.76416)" />
    <path
       id="path892"
       style="fill:#ffffff;stroke:none;stroke-width:0.999999px;stroke-linecap:butt;stroke-linejoin:miter;stroke-opacity:1;fill-opacity:1"
       d="m 914.42188,679.58789 c -4.96377,-0.0642 -9.71941,0.38313 -14.54102,1.36523 -6.42881,1.30948 -12.9758,3.57129 -18.51172,6.13086 -5.53592,2.55958 -10.05963,5.41553 -12.85742,7.43946 -2.79779,2.02393 -3.86883,3.21452 -4.64258,3.98828 -0.77375,0.77376 -1.24937,1.13146 -1.66602,0.17969 -0.41664,-0.95178 -0.77386,-3.21466 -1.25,-5.47657 -0.47613,-2.26191 -0.35838,-4.87994 -0.83453,-6.54659 -0.47615,-1.66665 -2.27282,-9.17489 -2.80846,-9.59226 -0.53564,-0.41736 -2.41687,5.98219 -3.90534,7.58954 -1.48847,1.60734 -3.18478,5.1714 -5.98247,9.57631 -2.79769,4.40491 -5.05614,9.02038 -6.78228,12.53258 -1.72615,3.5122 -2.30749,2.03652 -2.18831,3.8224 0.11917,1.78589 1.1904,8.09524 0.35686,12.44029 -0.83353,4.34505 -2.85714,10.65334 -5,15.47461 -2.14286,4.82127 -4.40484,8.156 -7.5,11.42969 -3.09515,3.27369 -7.02252,6.48729 -10.71289,8.92773 -3.69036,2.44044 -7.14348,4.10639 -9.58398,5.29688 -2.4405,1.19049 -1.97453,1.02069 -2.86768,1.73526 -0.89315,0.71456 -1.95952,3.35213 -2.18535,3.68114 -2.32505,3.38739 -0.5588,0.48302 -3.53506,4.76884 -2.97627,4.28582 -9.30611,12.60416 -12.10341,17.3666 -2.79731,4.76245 -2.72167,3.1656 -3.60134,4.02122 -1.26787,1.23322 -1.58797,2.15735 4.30477,0.31194 5.89274,-1.84539 22.30982,-5.93217 31.47635,-11.28933 9.16653,-5.35716 17.61921,-12.38046 22.61914,-16.78516 4.99993,-4.40469 6.54757,-6.19158 9.10742,-3.0957 2.55986,3.09588 6.13042,11.07343 11.01172,17.38281 4.88131,6.30939 11.07186,10.95157 18.21484,15.0586 7.14299,4.10702 15.23843,7.67839 22.85743,9.40429 7.61899,1.72591 14.76261,1.60576 22.08398,0.59375 7.32138,-1.01201 14.81984,-2.91588 21.60547,-5.29687 6.78563,-2.381 12.85709,-5.23863 19.88086,-9.46485 7.02377,-4.22622 15.00015,-9.82053 21.36914,-15.05859 6.36899,-5.23806 11.1315,-10.11857 13.33398,-13.68945 2.20252,-3.57089 1.84442,-5.8327 0.65432,-8.03516 -1.19013,-2.20246 -3.21326,-4.34603 -6.18947,-5.41797 -2.97622,-1.07194 -6.90414,-1.07146 -9.88086,0 -2.97673,1.07146 -5.00077,3.21495 -7.32227,5.95313 -2.32149,2.73817 -4.94082,6.07054 -7.73828,8.68945 -2.79746,2.61891 -5.77466,4.52324 -9.82226,6.78516 -4.04761,2.26192 -9.16554,4.8813 -13.45118,6.72656 -4.28563,1.84525 -7.73877,2.91685 -10.95312,3.98828 -3.21435,1.07143 -6.18915,2.14296 -9.34375,2.73828 -3.1546,0.59532 -6.48876,0.71366 -10.83399,0.53516 -4.34522,-0.17851 -9.70161,-0.6542 -15.29687,-2.67774 -5.59526,-2.02353 -11.42985,-5.59577 -15.65625,-9.22656 -4.2264,-3.63078 -6.84496,-7.31981 -8.75,-11.72461 -1.90504,-4.4048 -3.09408,-9.52366 -3.68945,-15 -0.59538,-5.47633 -0.59626,-11.31071 -0.17969,-15.53711 0.41657,-4.2264 1.25075,-6.84503 2.32226,-8.86914 1.07152,-2.02411 2.3794,-3.45274 3.09376,-3.51172 0.71435,-0.059 0.83469,1.25072 0.29882,2.97656 -0.53586,1.72585 -1.72779,3.86897 -1.78711,7.97657 -0.0593,4.1076 1.01379,10.17878 2.74024,15.35742 1.72644,5.17864 4.10669,9.46479 9.88086,14.10742 5.77416,4.64264 14.93972,9.6419 21.42773,12.08203 6.48801,2.44013 10.29758,2.32188 14.88086,1.72656 4.58328,-0.59531 9.94055,-1.66736 14.88086,-3.45312 4.94031,-1.78576 9.46465,-4.28676 14.10742,-7.56055 4.64278,-3.27379 9.40526,-7.32137 12.97656,-12.14257 3.57131,-4.82121 5.95051,-10.41468 7.61719,-14.87891 1.66669,-4.46424 2.61913,-7.79874 0.59571,-13.69141 -2.02343,-5.89267 -7.02341,-14.344 -13.03516,-21.18945 -6.01176,-6.84545 -13.03389,-12.08431 -20.23633,-15.41797 -7.20244,-3.33366 -14.58429,-4.76102 -21.42969,-5.29687 -1.71135,-0.13397 -3.38838,-0.21297 -5.04296,-0.23438 z m 6.02734,21.30469 c 0.57246,-0.0678 1.7767,0.39574 4.84961,1.90625 3.5119,1.7263 9.46418,4.82148 13.27344,7.97656 3.80925,3.15508 5.47671,6.36837 6.96484,9.16602 1.48813,2.79764 2.79653,5.17945 3.09375,8.45312 0.29722,3.27367 -0.41734,7.43957 -3.0957,10.71289 -2.67837,3.27333 -7.32058,5.65391 -11.42774,7.67774 -4.10716,2.02383 -7.67927,3.69122 -11.72656,3.81054 -4.04729,0.11932 -8.57096,-1.30883 -12.14258,-3.68945 -3.57162,-2.38062 -6.18992,-5.71434 -7.38086,-8.98828 -1.19094,-3.27394 -0.95308,-6.48819 0.41602,-9.46485 1.36909,-2.97665 3.86851,-5.71441 7.26172,-7.85742 3.3932,-2.143 7.67894,-3.69203 10,-5.17968 2.32105,-1.48766 2.67803,-2.91493 2.26172,-4.99805 -0.41632,-2.08312 -1.60678,-4.82168 -2.26172,-6.60742 -0.65494,-1.78575 -0.77361,-2.61898 -0.29688,-2.85743 0.0596,-0.0298 0.12916,-0.0509 0.21094,-0.0605 z"
       transform="matrix(0.26458333,0,0,0.26458333,35.647462,5.76416)"
       sodipodi:nodetypes="ssssssssssssssssssssssssssssssssssssssssssssssssssssssssssssssssssssssssssssssssssssss" />
    <path
       style="fill:#ffffff;stroke:none;stroke-width:0.264583px;stroke-linecap:butt;stroke-linejoin:miter;stroke-opacity:1;fill-opacity:1"
       d="m 301.67184,214.06869 c -0.0236,-0.51186 -0.0236,-1.07881 -0.11813,-2.92148 -0.0945,-1.84266 -0.28347,-4.9609 -0.59844,-8.39421 -0.31498,-3.43332 -0.75594,-7.1815 -1.1654,-9.81159 -0.40946,-2.63009 -0.78743,-4.14197 -0.9922,-5.26018 -0.20477,-1.1182 -0.23627,-1.84264 -0.0315,-2.47273 0.20472,-0.63009 0.64569,-1.16555 1.14979,-1.46481 0.50409,-0.29925 1.07105,-0.36225 1.73255,-0.34647 0.6615,0.0158 1.41744,0.11027 2.03161,0.50414 0.61418,0.39387 1.08664,1.08681 1.43311,1.60653 0.34647,0.51972 0.56695,0.86619 0.85031,0.66136 0.28336,-0.20483 0.62983,-0.96078 1.71663,-1.66957 1.0868,-0.7088 2.91366,-1.37025 4.5044,-1.65369 1.59073,-0.28344 2.9451,-0.18895 4.45704,0.39386 1.51193,0.58281 3.18129,1.65372 4.81917,3.18145 1.63787,1.52772 3.24424,3.51205 3.59057,5.13408 0.34634,1.62204 -0.56708,2.88194 -1.62221,3.85834 -1.05514,0.9764 -2.25203,1.66933 -3.6536,1.84263 -1.40158,0.17329 -3.00795,-0.17318 -4.28365,-0.88179 -1.27571,-0.70861 -2.22063,-1.77952 -2.83491,-2.69295 -0.61428,-0.91343 -0.89776,-1.66937 -0.75608,-2.36248 0.14168,-0.69311 0.70863,-1.32306 1.14961,-1.84277 0.44097,-0.51971 0.75593,-0.92917 0.75609,-1.14967 1.6e-4,-0.22049 -0.31482,-0.25199 -0.78733,-0.22053 -0.4725,0.0315 -1.10244,0.12596 -1.95304,0.99222 -0.85059,0.86626 -1.9215,2.50413 -2.64591,3.46477 -0.72441,0.96064 -1.1024,1.24412 -1.33868,1.54345 -0.23628,0.29933 -0.33078,0.61431 -0.0157,3.21301 0.31504,2.5987 1.03948,7.48079 1.33868,11.11881 0.2992,3.63803 0.17321,6.03183 -0.28349,7.52785 -0.4567,1.49602 -1.24414,2.09448 -2.03149,2.39372 -0.78734,0.29924 -1.57477,0.29924 -2.17321,0.19695 -0.59845,-0.1023 -1.00789,-0.30702 -1.30721,-0.62193 -0.29933,-0.31491 -0.48831,-0.74011 -0.60649,-1.16536 -0.11818,-0.42525 -0.16542,-0.85043 -0.21268,-1.29143 -0.0473,-0.441 -0.0945,-0.89767 -0.11812,-1.40953 z"
       id="path901"
       inkscape:path-effect="#path-effect903"
       inkscape:original-d="m 301.6482,214.12354 c 2.7e-4,-0.56671 2.7e-4,-1.13366 0,-1.7009 -0.18872,-3.11811 -0.37771,-6.23634 -0.56696,-9.35491 -0.44071,-3.74808 -0.88168,-7.49626 -1.32292,-11.24479 -0.37772,-1.51167 -0.75569,-3.02355 -1.13393,-4.53572 -0.0312,-0.7242 -0.0627,-1.44864 -0.0945,-2.17336 0.44124,-0.53521 0.88221,-1.07067 1.32291,-1.6064 0.56724,-0.0627 1.13419,-0.12573 1.7009,-0.18899 0.75623,0.0948 1.51217,0.18925 2.26785,0.28348 0.47276,0.69324 0.94522,1.38618 1.41742,2.07887 0.22075,0.34675 0.44122,0.69322 0.66146,1.03944 0.34674,-0.7557 0.69321,-1.51164 1.03942,-2.26786 1.82718,-0.66121 3.65405,-1.32265 5.48066,-1.98437 1.35472,0.0948 2.70909,0.18925 4.06326,0.28348 1.66968,1.07122 3.33904,2.14213 5.00816,3.2128 1.60671,1.98468 3.21307,3.96901 4.8192,5.95312 -0.91318,1.26021 -1.8266,2.52011 -2.74031,3.77976 -1.19669,0.69324 -2.39358,1.38618 -3.59077,2.07887 -1.60618,-0.34622 -3.21255,-0.69269 -4.8192,-1.03943 -0.9447,-1.07069 -1.88963,-2.1416 -2.83483,-3.2128 -0.28323,-0.7557 -0.56671,-1.51164 -0.85045,-2.26786 0.56724,-0.6297 1.13419,-1.25965 1.7009,-1.88988 0.31525,-0.40922 0.63021,-0.81868 0.94494,-1.22842 -0.31473,-0.0312 -0.62971,-0.0627 -0.94494,-0.0945 -0.6297,0.0948 -1.25965,0.18925 -1.88989,0.28348 -1.07069,1.63819 -2.14159,3.27606 -3.21278,4.91369 -0.37772,0.28375 -0.7557,0.56723 -1.13395,0.85044 -0.0942,0.31525 -0.1887,0.63023 -0.28348,0.94494 0.72475,4.88256 1.44918,9.76465 2.17337,14.64658 -0.12573,2.39416 -0.25172,4.78796 -0.37798,7.18155 -0.78719,0.59874 -1.57464,1.19719 -2.36234,1.79538 -0.78721,2.7e-4 -1.57464,2.7e-4 -2.36235,0 -0.40923,-0.20448 -0.81867,-0.4092 -1.22842,-0.61421 -0.18873,-0.42497 -0.37771,-0.85017 -0.56697,-1.27567 -0.047,-0.42497 -0.0942,-0.85016 -0.14175,-1.27567 -0.047,-0.45648 -0.0942,-0.91316 -0.14173,-1.37014 z"
       sodipodi:nodetypes="scccccccccccccccccccccccccccccccccss" />
    <path
       style="fill:#ffffff;stroke:none;stroke-width:0.264583px;stroke-linecap:butt;stroke-linejoin:miter;stroke-opacity:1;fill-opacity:1"
       d="m 328.42153,214.28128 c 0.0315,-1.76389 0.0945,-4.97669 -0.15748,-8.56748 -0.25197,-3.5908 -0.81892,-7.55947 -1.16542,-10.42581 -0.34649,-2.86634 -0.47248,-4.6302 -0.75592,-6.0476 -0.28343,-1.4174 -0.72439,-2.48831 -0.40946,-3.52792 0.31493,-1.03961 1.38584,-2.04752 2.36241,-2.58299 0.97657,-0.53548 1.85848,-0.59847 2.58295,-0.31484 0.72447,0.28364 1.29142,0.91359 1.60629,1.41758 0.31488,0.50398 0.37787,0.88194 1.10234,0.53529 0.72446,-0.34665 2.11036,-1.41757 4.22087,-1.89002 2.11051,-0.47245 4.94528,-0.34646 7.02417,0.31513 2.07888,0.66159 3.40177,1.8585 4.56714,3.46495 1.16538,1.60645 2.17329,3.62229 2.48816,5.16562 0.31486,1.54333 -0.0631,2.61423 -1.16548,3.68508 -1.10238,1.07084 -2.92922,2.14174 -4.50402,2.42531 -1.5748,0.28356 -2.8977,-0.22039 -4.12618,-1.19676 -1.22848,-0.97637 -2.36238,-2.42525 -2.83497,-3.68522 -0.4726,-1.25997 -0.28361,-2.33088 0.18892,-3.11847 0.47253,-0.78758 1.22845,-1.29153 1.38604,-1.76385 0.15759,-0.47233 -0.28338,-0.9133 -1.63795,0.063 -1.35456,0.97633 -3.62239,3.37015 -4.69329,4.9452 -1.07089,1.57505 -0.9449,2.33099 -0.69292,4.37839 0.25198,2.0474 0.62995,5.38612 0.88192,8.37845 0.25198,2.99233 0.37797,5.63811 0.37795,7.59098 -2e-5,1.95287 -0.12601,3.21276 -0.50394,4.03157 -0.37793,0.81881 -1.00789,1.19678 -1.95273,1.13387 -0.94484,-0.0629 -2.20473,-0.56687 -2.96072,-0.97627 -0.756,-0.4094 -1.00797,-0.72438 -1.13408,-1.03937 -0.1261,-0.31499 -0.1261,-0.62997 -0.0946,-2.39386 z"
       id="path905"
       inkscape:path-effect="#path-effect907"
       inkscape:original-d="m 328.39003,215.72993 c 0.0633,-3.21253 0.12625,-6.42533 0.18899,-9.63839 -0.56671,-3.96857 -1.13369,-7.93724 -1.7009,-11.90625 -0.12573,-1.76366 -0.25173,-3.52752 -0.37799,-5.29167 -0.44071,-1.07069 -0.88167,-2.1416 -1.32291,-3.2128 1.07122,-1.00769 2.14212,-2.0156 3.21281,-3.02381 0.88222,-0.0627 1.76413,-0.12572 2.64583,-0.18898 0.56724,0.63023 1.13419,1.26018 1.70087,1.88988 0.0633,0.37825 0.12626,0.75621 0.18899,1.13393 1.38621,-1.07069 2.7721,-2.14161 4.15775,-3.2128 2.83514,0.12626 5.66991,0.25225 8.50447,0.37797 1.32321,1.19722 2.6461,2.39412 3.96875,3.59078 1.00822,2.01617 2.01613,4.03201 3.02379,6.04762 -0.37772,1.07122 -0.75567,2.14213 -1.13392,3.21279 -1.82666,1.07122 -3.6535,2.14213 -5.48066,3.2128 -1.32268,-0.50371 -2.64557,-1.00767 -3.96875,-1.5119 -1.13369,-1.44868 -2.26759,-2.89756 -3.40178,-4.34673 0.18926,-1.07069 0.37825,-2.1416 0.56698,-3.2128 0.75623,-0.50371 1.51215,-1.00767 2.26785,-1.5119 -0.44072,-0.44072 -0.8817,-0.88168 -1.32292,-1.32292 -2.26763,2.39416 -4.53546,4.78797 -6.80357,7.18155 0.12626,0.75623 0.25225,1.51217 0.37798,2.26786 0.37825,3.33912 0.75621,6.67784 1.13393,10.01637 0.12626,2.64615 0.25225,5.29193 0.37798,7.9375 -0.12573,1.26021 -0.25172,2.5201 -0.37798,3.77976 -0.62971,0.37824 -1.25966,0.75622 -1.8899,1.13393 -1.25968,-0.50372 -2.51957,-1.00768 -3.77975,-1.51191 -0.25173,-0.31472 -0.50372,-0.62969 -0.75594,-0.94494 2.6e-4,-0.31472 2.6e-4,-0.6297 0,-0.94494 z" />
    <path
       id="path909"
       style="fill:#ffffff;stroke:none;stroke-width:0.999999px;stroke-linecap:butt;stroke-linejoin:miter;stroke-opacity:1;fill-opacity:1"
       d="m 1187.2656,579.04688 c -10.7669,0.0795 -23.1057,1.97187 -31.9082,5.35742 -10.8339,4.16683 -16.3096,10.59498 -17.1426,17.97656 -0.8329,7.38158 2.976,15.71578 7.6192,21.66797 4.6432,5.95219 10.1188,9.5237 17.2617,12.02344 7.1429,2.49973 15.9527,3.92746 22.3809,3.33203 6.4281,-0.59544 10.4759,-3.21306 14.7617,-5.95118 4.2857,-2.73811 8.8105,-5.5969 11.6679,-6.31054 2.8575,-0.71364 4.0471,0.71521 3.5704,3.21484 -0.4768,2.49963 -2.6191,6.07109 -5,14.88086 -2.381,8.80977 -5.001,22.85851 -6.1914,39.64453 -1.1904,16.78602 -0.9513,36.30948 1.7871,52.73828 2.7383,16.4288 7.9756,29.76053 12.0234,38.21289 4.0479,8.45237 6.9056,12.02454 7.8574,15.71485 0.9519,3.69031 0,7.49976 -1.6679,17.5 -1.6667,10.00024 -4.0471,26.18942 -6.9043,38.57031 -2.8573,12.38089 -6.1916,20.95313 -13.6914,28.0957 -7.4999,7.14257 -19.1652,12.85702 -27.6172,15.11914 -8.4521,2.26213 -13.6906,1.07139 -20.2383,-2.26171 -6.5477,-3.33311 -14.4042,-8.80983 -19.7617,-15.23829 -5.3576,-6.42846 -8.2149,-13.80966 -8.6914,-20.5957 -0.4765,-6.78604 1.4288,-12.97548 5.9531,-17.14258 4.5243,-4.1671 11.6662,-6.30952 17.2617,-7.38086 5.5955,-1.07133 9.6443,-1.0716 14.5254,0.11914 4.8811,1.19075 10.5947,3.57211 13.6894,6.31055 3.0948,2.73844 3.5707,5.8331 1.4278,8.92774 -2.1429,3.09463 -6.9055,6.18895 -10.4766,6.30859 -3.5711,0.11964 -5.9511,-2.73603 -8.2129,-4.99805 -2.2618,-2.26202 -4.4046,-3.92978 -7.5,-4.64453 -3.0954,-0.71475 -7.1425,-0.47727 -10.3574,1.3086 -3.2149,1.78586 -5.596,5.11957 -5.2383,8.81054 0.3577,3.69097 3.4517,7.73919 6.7852,11.31055 3.3335,3.57136 6.9063,6.66637 12.1445,9.28515 5.2382,2.61879 12.142,4.76147 18.4512,4.04688 6.3091,-0.71459 12.0238,-4.28563 17.3808,-9.76172 5.357,-5.47609 10.356,-12.85679 11.3086,-21.54687 0.9526,-8.69009 -2.1417,-18.69089 -8.0937,-25.95313 -5.9521,-7.26223 -14.7617,-11.78562 -25.2383,-12.85742 -10.4766,-1.0718 -22.6201,1.30869 -31.668,3.92773 -9.0478,2.61905 -15,5.47777 -20.4765,9.76368 -5.4765,4.28591 -10.4749,10.00002 -13.3321,18.21484 -2.8571,8.21481 -3.5728,18.92761 -1.3105,29.04687 2.2623,10.11927 7.5016,19.64295 15.0019,27.38086 7.5004,7.73792 17.2609,13.69035 28.6895,16.9043 11.4286,3.21395 24.5251,3.69044 36.5488,2.26172 12.0238,-1.42872 22.9759,-4.76109 31.666,-11.30859 8.6902,-6.54751 15.1171,-16.31068 19.9981,-28.81055 4.881,-12.49987 8.2154,-27.73687 11.5488,-48.68945 3.3334,-20.95259 6.6657,-47.61846 11.3086,-69.64258 4.6429,-22.02412 10.5957,-39.40554 15.7149,-51.31055 5.1191,-11.90501 9.4052,-18.33253 13.2148,-24.04687 3.8096,-5.71435 7.1415,-10.71486 9.166,-13.09571 2.0245,-2.38085 2.7399,-2.14257 4.4063,0.95313 1.6663,3.09569 4.2854,9.04818 7.6191,12.73828 3.3337,3.6901 7.3804,5.11748 14.166,5.11719 6.7856,-3e-4 16.3087,-1.4273 23.3321,-5.71289 7.0233,-4.28559 11.5479,-11.4288 13.2148,-17.26172 1.6669,-5.83293 0.4756,-10.35665 -2.8574,-14.64258 -3.333,-4.28593 -8.808,-8.3345 -15.5938,-11.78711 -6.7857,-3.45261 -14.8808,-6.30857 -22.8574,-6.66602 -7.9766,-0.35744 -15.833,1.78422 -25.1191,8.33204 -9.2862,6.54781 -20.0009,17.50167 -28.8106,30.12109 -8.8097,12.61941 -15.7145,26.90394 -20.2383,39.28515 -4.5238,12.38122 -6.6671,22.85677 -8.0957,29.52344 -1.4286,6.66667 -2.1414,9.5243 -2.9746,8.33399 -0.8331,-1.19031 -1.7857,-6.4278 -2.6191,-16.78516 -0.8334,-10.35735 -1.5474,-25.83355 0.2383,-43.21484 1.7856,-17.38129 6.0696,-36.66784 7.8554,-48.81055 1.7859,-12.14271 1.0715,-17.14186 -2.1425,-23.80859 -3.2141,-6.66674 -8.9274,-15.00054 -15.7129,-21.07227 -6.7856,-6.07172 -14.6419,-9.88127 -26.6661,-10.83398 -2.2545,-0.17864 -4.6559,-0.25664 -7.1406,-0.23828 z m -5.7734,21.13281 c 4.4038,0.0407 8.97,0.50569 11.7226,1.25 4.4043,1.19089 4.1664,3.09417 2.2618,5.59375 -1.9047,2.49957 -5.4771,5.59521 -8.2149,7.38086 -2.7378,1.78565 -4.6411,2.26284 -7.498,1.66797 -2.8569,-0.59487 -6.668,-2.26153 -9.4063,-4.16602 -2.7383,-1.90449 -4.4037,-4.04796 -4.166,-6.19141 0.2377,-2.14344 2.3808,-4.28581 7.9766,-5.11914 2.0984,-0.31249 4.6819,-0.44045 7.3242,-0.41601 z"
       transform="matrix(0.26458333,0,0,0.26458333,35.647462,5.76416)" />
    <g
       id="g990"
       style="fill:#ffffff;fill-opacity:1;stroke:none">
      <path
         style="fill:#ffffff;stroke:none;stroke-width:0.264583px;stroke-linecap:butt;stroke-linejoin:miter;stroke-opacity:1;fill-opacity:1"
         d="m 284.36398,175.99273 c 0.24499,-0.64593 0.64589,-1.58138 1.42549,-2.47236 0.7796,-0.89099 1.93774,-1.73732 2.78419,-1.82624 0.84645,-0.0889 1.38098,0.57924 2.24965,1.4033 0.86866,0.82406 2.07136,1.80403 2.9845,2.69496 0.91315,0.89094 1.53676,1.69273 1.69254,2.29396 0.15578,0.60124 -0.15603,1.00213 -0.51222,1.15806 -0.35619,0.15592 -0.7571,0.0668 -1.49212,-0.51217 -0.73502,-0.57899 -1.80408,-1.64805 -2.56138,-2.53893 -0.75731,-0.89089 -1.20275,-1.6036 -1.49226,-2.02679 -0.2895,-0.4232 -0.42314,-0.55684 -0.71273,-0.55699 -0.28959,-1.6e-4 -0.73503,0.13348 -1.20287,0.64582 -0.46784,0.51235 -0.95782,1.40323 -1.381,2.09366 -0.42317,0.69042 -0.77952,1.18041 -1.13571,1.31412 -0.35619,0.1337 -0.71254,-0.089 -0.84636,-0.37856 -0.13381,-0.28954 -0.0447,-0.64591 0.20028,-1.29184 z"
         id="path918"
         inkscape:path-effect="#path-effect920"
         inkscape:original-d="m 284.20812,176.28212 c 0.40117,-0.93518 0.80207,-1.87063 1.20271,-2.80633 1.15846,-0.84611 2.3166,-1.69245 3.4745,-2.53906 0.53482,0.66845 1.06935,1.33661 1.60362,2.00452 1.203,0.98027 2.40569,1.96024 3.60814,2.93996 0.62391,0.80209 1.24752,1.60388 1.87089,2.40543 -0.31156,0.40117 -0.62337,0.80207 -0.93545,1.20271 -0.40064,-0.0888 -0.80154,-0.17791 -1.20271,-0.26727 -1.06883,-1.06883 -2.13789,-2.13789 -3.20723,-3.20723 -0.4452,-0.71247 -0.89064,-1.42518 -1.33635,-2.13816 -0.13337,-0.13337 -0.26701,-0.26701 -0.40091,-0.4009 -0.44519,0.1339 -0.89063,0.26753 -1.33634,0.4009 -0.48974,0.89118 -0.97973,1.78206 -1.46999,2.67269 -0.3561,0.49027 -0.71245,0.98026 -1.06907,1.46999 -0.35611,-0.22247 -0.71246,-0.44519 -1.06908,-0.66818 0.0893,-0.3561 0.17844,-0.71245 0.26727,-1.06907 z" />
      <path
         style="fill:#ffffff;stroke:none;stroke-width:0.264583px;stroke-linecap:butt;stroke-linejoin:miter;stroke-opacity:1;fill-opacity:1"
         d="m 292.8552,173.28757 c -0.60531,-0.18593 -1.43096,-0.75736 -1.66173,-1.34709 -0.23078,-0.58974 0.13368,-1.19761 0.44974,-1.43468 0.31605,-0.23708 0.58331,-0.10345 0.91736,0.20843 0.33405,0.31188 0.73495,0.80187 1.02446,1.22506 0.2895,0.4232 0.46767,0.77955 0.36415,1.05721 -0.10352,0.27767 -0.48866,0.47699 -1.09398,0.29107 z"
         id="path922"
         inkscape:path-effect="#path-effect924"
         inkscape:original-d="m 293.07526,173.67288 c -0.82541,-0.57118 -1.65106,-1.14261 -2.47699,-1.71433 0.36473,-0.60762 0.72919,-1.21549 1.09339,-1.82363 0.26755,0.1339 0.53481,0.26753 0.80181,0.4009 0.40118,0.49027 0.80208,0.98025 1.20272,1.46998 0.17845,0.35664 0.35662,0.71299 0.53453,1.06908 -0.3849,0.1996 -0.77004,0.39893 -1.15546,0.598 z"
         sodipodi:nodetypes="ccccccc" />
      <path
         style="fill:#ffffff;stroke:none;stroke-width:0.264583px;stroke-linecap:butt;stroke-linejoin:miter;stroke-opacity:1;fill-opacity:1"
         d="m 295.57148,171.56073 c 0.28668,-0.12315 0.60885,-0.57401 0.48052,-1.11115 -0.12833,-0.53713 -0.70739,-1.16075 -1.19736,-1.58397 -0.48997,-0.42323 -0.89087,-0.64595 -1.22514,-0.53463 -0.33427,0.11131 -0.60153,0.55675 -0.69573,0.92763 -0.0942,0.37088 -0.0154,0.66694 0.32145,0.99039 0.33691,0.32345 0.93172,0.67439 1.35489,0.95227 0.42318,0.27788 0.6747,0.48261 0.96137,0.35946 z"
         id="path926"
         inkscape:path-effect="#path-effect928"
         inkscape:original-d="m 295.53604,171.88838 c 0.32242,-0.45059 0.64459,-0.90145 0.96648,-1.35256 -0.57884,-0.62338 -1.15791,-1.24699 -1.73725,-1.87089 -0.40065,-0.22246 -0.80155,-0.44518 -1.20272,-0.66817 -0.26701,0.44572 -0.53427,0.89116 -0.80181,1.33635 0.079,0.29633 0.15775,0.59239 0.23624,0.88819 0.5951,0.35123 1.18991,0.70217 1.78449,1.05287 0.25179,0.20501 0.50331,0.40974 0.75457,0.61421 z"
         sodipodi:nodetypes="cccccccc" />
      <path
         style="fill:#ffffff;stroke:none;stroke-width:0.264583px;stroke-linecap:butt;stroke-linejoin:miter;stroke-opacity:1;fill-opacity:1"
         d="m 301.65611,174.58563 c 0.0551,-0.0394 0.16539,-0.11813 0.25983,-0.2834 0.0944,-0.16527 0.17318,-0.41725 0.12608,-0.63768 -0.0471,-0.22044 -0.22033,-0.40941 -0.37002,-0.685 -0.14969,-0.2756 -0.27567,-0.63781 -0.22062,-0.98443 0.055,-0.34661 0.29128,-0.67735 0.42515,-1.07098 0.13387,-0.39363 0.16537,-0.85034 -0.0156,-1.1575 -0.18095,-0.30716 -0.57468,-0.46465 -0.92126,-0.48049 -0.34657,-0.0158 -0.64579,0.11015 -0.90574,0.47248 -0.25996,0.36233 -0.48044,0.96078 -0.56702,1.51995 -0.0866,0.55916 -0.0393,1.07888 0.0158,1.55136 0.0551,0.47248 0.11813,0.89768 0.2915,1.20474 0.17337,0.30707 0.45685,0.49605 0.77967,0.57469 0.32282,0.0786 0.68504,0.0471 0.86604,0.0314 0.181,-0.0157 0.18101,-0.0157 0.23616,-0.0551 z"
         id="path930"
         inkscape:path-effect="#path-effect932"
         inkscape:original-d="m 301.60096,174.62502 c 0.11049,-0.0785 0.22075,-0.15723 0.33073,-0.23623 0.079,-0.25173 0.15775,-0.50371 0.23622,-0.75596 -0.17298,-0.18873 -0.3462,-0.37771 -0.51972,-0.56696 -0.12573,-0.36197 -0.2517,-0.72419 -0.37796,-1.08668 0.23649,-0.33047 0.47274,-0.6612 0.70869,-0.99219 0.0318,-0.45647 0.0633,-0.91318 0.0945,-1.37016 -0.39346,-0.15723 -0.78719,-0.31472 -1.18118,-0.47247 -0.29898,0.12626 -0.5982,0.25224 -0.89769,0.37797 -0.22023,0.59874 -0.44071,1.19719 -0.66146,1.79539 0.0475,0.51999 0.0948,1.0397 0.14174,1.55915 0.0633,0.4255 0.12625,0.85071 0.18899,1.27567 0.28375,0.18926 0.56723,0.37824 0.85044,0.56697 0.3625,-0.0312 0.72472,-0.0627 1.08669,-0.0945 z" />
      <path
         style="fill:#ffffff;stroke:none;stroke-width:0.264583px;stroke-linecap:butt;stroke-linejoin:miter;stroke-opacity:1;fill-opacity:1"
         d="m 304.48302,170.23905 c 0,0.10251 0,0.30724 0.0236,0.84272 0.0236,0.53548 0.0709,1.40167 -0.0158,2.24419 -0.0867,0.84253 -0.30713,1.66146 -0.75593,2.29919 -0.44879,0.63773 -1.12598,1.09445 -1.62205,1.39367 -0.49607,0.29923 -0.81106,0.44097 -0.96072,0.701 -0.14966,0.26002 -0.1339,0.63799 -0.0787,0.93726 0.0552,0.29926 0.14968,0.51973 0.49623,0.63768 0.34656,0.11795 0.945,0.13368 1.53547,-0.1262 0.59047,-0.25988 1.17317,-0.79533 1.73224,-1.40953 0.55907,-0.61419 1.09453,-1.30714 1.45675,-1.96853 0.36222,-0.6614 0.55121,-1.29135 0.63785,-2.10239 0.0866,-0.81104 0.0709,-1.80316 3e-5,-2.54337 -0.0708,-0.7402 -0.19684,-1.22841 -0.40148,-1.62216 -0.20465,-0.39375 -0.48812,-0.69298 -0.82675,-0.81912 -0.33862,-0.12614 -0.73233,-0.0789 -0.94507,0.0945 -0.21273,0.17337 -0.24423,0.4726 -0.25997,0.71672 -0.0157,0.24412 -0.0157,0.43313 -0.0157,0.52748 0,0.0944 -10e-6,0.0944 -10e-6,0.19691 z"
         id="path934"
         inkscape:path-effect="#path-effect936"
         inkscape:original-d="m 304.48302,170.13655 c 2.6e-4,0.20501 2.6e-4,0.40974 0,0.61422 0.0475,0.86647 0.0948,1.73265 0.14173,2.59858 -0.22021,0.81923 -0.44069,1.63816 -0.66145,2.45685 -0.67694,0.45699 -1.35414,0.9137 -2.03161,1.37016 -0.31472,0.14201 -0.62971,0.28375 -0.94496,0.42522 0.0161,0.37825 0.0318,0.75622 0.0473,1.13393 0.0948,0.22076 0.18925,0.44124 0.28347,0.66146 0.59875,0.016 1.19719,0.0318 1.79541,0.0472 0.58298,-0.53522 1.16568,-1.07067 1.74813,-1.6064 0.53573,-0.69271 1.07119,-1.38565 1.60639,-2.07887 0.18926,-0.62971 0.37825,-1.25966 0.56698,-1.88988 -0.0155,-0.99195 -0.0312,-1.98408 -0.0473,-2.97656 -0.12574,-0.48797 -0.25172,-0.97618 -0.37798,-1.46466 -0.28321,-0.29898 -0.56669,-0.5982 -0.85042,-0.8977 -0.39349,0.0475 -0.78719,0.0948 -1.18118,0.14174 -0.0312,0.2995 -0.0627,0.59873 -0.0945,0.89769 2.7e-4,0.18925 2.7e-4,0.37826 0,0.56697 z"
         sodipodi:nodetypes="scccccccccccccccccs" />
      <path
         style="fill:#ffffff;stroke:none;stroke-width:0.264583px;stroke-linecap:butt;stroke-linejoin:miter;stroke-opacity:1;fill-opacity:1"
         d="m 311.61755,177.42845 c -0.36218,-0.18883 -0.8189,-0.64555 -1.1497,-1.1495 -0.33081,-0.50394 -0.53554,-1.05515 -0.63796,-1.62214 -0.10243,-0.567 -0.10243,-1.14971 0.0866,-1.55146 0.18903,-0.40176 0.56699,-0.62224 0.89781,-0.57483 0.33081,0.0474 0.61428,0.36237 0.82685,0.67738 0.21256,0.31501 0.3543,0.62999 0.36994,0.95277 0.0156,0.32278 -0.0946,0.65349 -0.008,1.01579 0.0867,0.3623 0.37023,0.75603 0.58289,0.9922 0.21266,0.23617 0.3544,0.31492 0.3306,0.50386 -0.0238,0.18894 -0.21278,0.48816 -0.44105,0.67709 -0.22826,0.18893 -0.49596,0.26767 -0.85815,0.0788 z"
         id="path938"
         inkscape:path-effect="#path-effect940"
         inkscape:original-d="m 311.71183,177.69608 c -0.45646,-0.45646 -0.91318,-0.91318 -1.37017,-1.37017 -0.20447,-0.55096 -0.40921,-1.10216 -0.6142,-1.65364 2.6e-4,-0.58246 2.6e-4,-1.16517 0,-1.74814 0.37824,-0.22023 0.7562,-0.44071 1.13392,-0.66146 0.28374,0.31525 0.56721,0.63022 0.85045,0.94494 0.142,0.31525 0.28374,0.63022 0.42521,0.94494 -0.10999,0.331 -0.22021,0.66172 -0.33073,0.99219 0.28374,0.39399 0.56724,0.78771 0.85045,1.18117 0.142,0.079 0.28374,0.15776 0.42521,0.23624 -0.18872,0.2995 -0.37769,0.59873 -0.56694,0.89769 -0.2675,0.079 -0.5352,0.15776 -0.8032,0.23624 z" />
      <path
         style="fill:#ffffff;stroke:none;stroke-width:0.264583px;stroke-linecap:butt;stroke-linejoin:miter;stroke-opacity:1;fill-opacity:1"
         d="m 315.64921,176.12917 c -0.12584,-0.10225 -0.37783,-0.307 -0.47248,-0.64561 -0.0947,-0.33861 -0.0317,-0.81107 -0.0473,-1.11813 -0.0156,-0.30706 -0.11013,-0.4488 -0.32268,-0.5749 -0.21256,-0.12609 -0.54329,-0.23633 -0.74028,-0.4331 -0.19699,-0.19676 -0.25999,-0.48025 -0.20489,-0.70876 0.0551,-0.22852 0.22831,-0.40175 0.47255,-0.50413 0.24424,-0.10238 0.55922,-0.13388 1.02385,0.0552 0.46463,0.1891 1.07884,0.59858 1.47245,1.09473 0.39362,0.49615 0.56686,1.07885 0.56678,1.54335 -7e-5,0.46449 -0.17331,0.81096 -0.38584,1.04711 -0.21254,0.23616 -0.4645,0.36215 -0.67702,0.40159 -0.21252,0.0394 -0.38572,-0.008 -0.47251,-0.0315 -0.0868,-0.0237 -0.0868,-0.0237 -0.21264,-0.12591 z"
         id="path942"
         inkscape:path-effect="#path-effect944"
         inkscape:original-d="m 315.77506,176.23142 c -0.25172,-0.20447 -0.50371,-0.40921 -0.75594,-0.61421 0.0633,-0.47222 0.12623,-0.94468 0.18897,-1.41741 -0.0942,-0.14148 -0.1887,-0.28322 -0.28348,-0.42523 -0.33046,-0.10998 -0.66119,-0.22022 -0.99219,-0.33072 -0.0627,-0.28323 -0.12573,-0.56671 -0.18899,-0.85045 0.17352,-0.17298 0.34674,-0.34621 0.51972,-0.51972 0.31526,-0.0312 0.63024,-0.0627 0.94494,-0.0945 0.61449,0.40974 1.2287,0.81921 1.84263,1.22842 0.17352,0.58299 0.34674,1.16569 0.51973,1.74814 -0.17299,0.34675 -0.34621,0.69322 -0.51973,1.03943 -0.25172,0.12626 -0.50368,0.25225 -0.75594,0.37798 -0.17298,-0.047 -0.3462,-0.0942 -0.51972,-0.14174 z" />
    </g>
    <g
       id="g981"
       transform="translate(18.441597,-1.3363476)"
       style="fill:#ffffff;fill-opacity:1;stroke:none">
      <path
         style="fill:#ffffff;stroke:none;stroke-width:0.32078px;stroke-linecap:butt;stroke-linejoin:miter;stroke-opacity:1;fill-opacity:1"
         d="m 268.30569,145.89419 c 1.04394,-0.3772 2.72577,-0.88013 4.37869,-0.98065 1.65291,-0.10051 3.27669,0.20124 4.40738,-0.0251 1.13069,-0.22637 1.7686,-0.98075 1.33383,-1.58421 -0.43477,-0.60345 -1.94255,-1.05608 -4.00142,-1.05616 -2.05887,-8e-5 -4.6685,0.45254 -6.64039,1.10635 -1.97189,0.65381 -3.30571,1.50878 -4.2047,2.81655 -0.89898,1.30776 -1.36293,3.06798 -0.95676,4.42595 0.40618,1.35797 1.68201,2.31352 3.42186,3.16844 1.73986,0.85492 3.94356,1.60929 6.06033,2.01158 2.11677,0.40228 4.14649,0.45257 5.5092,0.20108 1.36272,-0.2515 2.05864,-0.80473 2.11676,-1.35777 0.0581,-0.55305 -0.52182,-1.10627 -1.15973,-1.4333 -0.6379,-0.32703 -1.33382,-0.42762 -2.8127,-0.42765 -1.47888,-4e-5 -3.7406,0.10055 -5.50938,-0.25139 -1.76878,-0.35193 -3.04461,-1.1566 -3.59576,-2.18762 -0.55115,-1.03101 -0.37718,-2.28831 -0.0871,-3.04287 0.29004,-0.75456 0.69599,-1.00602 1.73993,-1.38321 z"
         id="path946"
         inkscape:path-effect="#path-effect948"
         inkscape:original-d="m 267.66759,146.01999 c 1.68215,-0.50263 3.36398,-1.00556 5.04548,-1.5088 1.62418,0.30207 3.24796,0.60382 4.87144,0.90528 0.6383,-0.75411 1.27621,-1.50849 1.91377,-2.26319 -1.50751,-0.45235 -3.01529,-0.90497 -4.52349,-1.35791 -2.60943,0.45294 -5.21906,0.90557 -7.82913,1.35791 -1.33353,0.85531 -2.66736,1.71026 -4.00154,2.56495 -0.46362,1.76059 -0.92757,3.52081 -1.39188,5.28077 1.27625,0.95588 2.55207,1.91144 3.82758,2.86671 2.20417,0.7547 4.40787,1.50908 6.61128,2.26318 2.03017,0.0506 4.05989,0.10094 6.08934,0.15089 0.69626,-0.55294 1.39218,-1.10616 2.08776,-1.65968 -0.57959,-0.55294 -1.15954,-1.10615 -1.73981,-1.65967 -0.69559,-0.10026 -1.3915,-0.20088 -2.08778,-0.30176 -2.26143,0.10094 -4.52316,0.20147 -6.78522,0.30176 -1.27555,-0.80441 -2.55138,-1.60908 -3.82758,-2.41407 0.17433,-1.25705 0.34829,-2.51435 0.52192,-3.77198 0.4063,-0.25117 0.81225,-0.50263 1.21786,-0.75439 z" />
      <path
         id="path950"
         style="fill:#ffffff;stroke:none;stroke-width:0.32078px;stroke-linecap:butt;stroke-linejoin:miter;stroke-opacity:1;fill-opacity:1"
         d="m 293.71633,140.7345 c -0.61435,-0.0141 -1.23442,0.19311 -1.61871,0.5327 -0.76853,0.67914 -0.5945,1.88617 -1.05829,2.21301 -0.46376,0.32684 -1.56576,-0.2261 -3.74065,-0.16336 -2.17487,0.0628 -5.42231,0.74156 -7.22032,2.1751 -1.79796,1.43353 -2.14594,3.62155 -2.26189,4.9418 -0.11587,1.32023 -10e-5,1.77254 0.84099,2.30053 0.8411,0.52799 2.40735,1.13166 4.08916,1.50881 1.68181,0.37712 3.47944,0.52788 5.33518,0.35181 1.85573,-0.17606 3.76905,-0.67896 4.84199,-0.82966 1.07297,-0.15072 1.30538,0.0506 1.79835,0.37749 0.49299,0.32687 1.24692,0.77952 2.05872,0.82966 0.8118,0.0501 1.68182,-0.30202 1.73982,-1.23224 0.0579,-0.93023 -0.69623,-2.43931 -1.33414,-3.60862 -0.63791,-1.16933 -1.15978,-1.99866 -1.2904,-3.58296 -0.13062,-1.58432 0.13006,-3.92304 -0.59472,-5.01708 -0.36237,-0.54703 -0.97073,-0.78284 -1.58509,-0.79699 z m -4.10529,5.06842 c 0.44945,0.003 0.83378,0.0537 1.16725,0.14178 0.66696,0.17616 1.13099,0.50278 1.34828,0.94285 0.21728,0.44008 0.188,0.9937 0.17357,1.27016 -0.0146,0.27647 -0.0143,0.27644 0.0437,0.50294 0.0581,0.22648 0.17386,0.67903 0.31888,1.09396 0.14508,0.41495 0.3189,0.79237 0.13052,0.98078 -0.18839,0.18838 -0.7393,0.188 -1.63821,0.25089 -0.89891,0.0629 -2.1457,0.18847 -3.50858,0.30163 -1.36284,0.11313 -2.84177,0.21375 -3.90009,0.063 -1.05838,-0.15075 -1.69601,-0.5527 -1.60931,-1.31976 0.0868,-0.76704 0.89871,-1.89899 2.05873,-2.6786 1.16002,-0.77963 2.66809,-1.20671 3.85703,-1.40786 0.59448,-0.1006 1.1087,-0.14493 1.55819,-0.14178 z" />
      <path
         style="fill:#ffffff;stroke:none;stroke-width:0.32078px;stroke-linecap:butt;stroke-linejoin:miter;stroke-opacity:1;fill-opacity:1"
         d="m 303.07271,148.35876 c 0,0.0756 0,0.22648 0.23202,1.42099 0.23201,1.19451 0.69595,3.4325 1.04394,4.91616 0.34798,1.48366 0.57995,2.21288 1.07304,2.67797 0.49309,0.46509 1.24699,0.66626 2.00082,0.61587 0.75383,-0.0504 1.50771,-0.35213 1.68167,-0.99316 0.17396,-0.64103 -0.23199,-1.62172 -0.66698,-2.96708 -0.43498,-1.34535 -0.89892,-3.05529 -1.04397,-4.0613 -0.14506,-1.006 0.0289,-1.30777 0.85556,-1.37064 0.82663,-0.0629 2.30542,0.11314 3.68279,0.2137 1.37737,0.10056 2.65319,0.12569 3.4794,-0.18861 0.82622,-0.3143 1.20317,-0.9681 1.17434,-1.50865 -0.0288,-0.54054 -0.46375,-0.96801 -1.44965,-1.18191 -0.9859,-0.21391 -2.52269,-0.21391 -3.90006,-0.18877 -1.37736,0.0251 -2.59521,0.0754 -3.24778,-0.22616 -0.65257,-0.30159 -0.73956,-0.95539 -0.43511,-1.68481 0.30445,-0.72943 1.00036,-1.5341 2.40688,-2.0622 1.40652,-0.5281 3.52325,-0.77956 5.08908,-0.96816 1.56583,-0.1886 2.5807,-0.31433 3.01555,-0.62846 0.43486,-0.31414 0.28987,-0.81706 -0.087,-1.28233 -0.37683,-0.46526 -0.98574,-0.89273 -2.16016,-1.0689 -1.17443,-0.17617 -2.91417,-0.10073 -4.78456,0.33931 -1.87039,0.44004 -3.87112,1.2447 -5.32108,2.30093 -1.44996,1.05623 -2.34884,2.36382 -2.72574,3.28184 -0.37689,0.91802 -0.23192,1.44608 -0.78272,1.57167 -0.5508,0.1256 -1.79763,-0.15101 -2.65308,-0.28936 -0.85544,-0.13835 -1.31938,-0.13835 -1.79798,0.0754 -0.47859,0.21372 -0.97154,0.64122 -1.24704,1.0437 -0.27551,0.40249 -0.3335,0.77969 0.14517,1.1191 0.47867,0.33942 1.49355,0.64118 2.43595,0.86748 0.9424,0.22629 1.81227,0.37716 2.46463,0.38966 0.65236,0.0125 1.08732,-0.11323 1.30468,-0.17606 0.21735,-0.0628 0.21735,-0.0628 0.21735,0.0128 z"
         id="path958"
         inkscape:path-effect="#path-effect960"
         inkscape:original-d="m 303.07271,148.28317 c 3.5e-4,0.15118 3.5e-4,0.30207 0,0.45265 0.4643,2.23838 0.92824,4.47638 1.39185,6.71411 0.2323,0.72957 0.46426,1.4588 0.69592,2.18776 0.75427,0.20147 1.50817,0.40264 2.26175,0.60352 0.75428,-0.30147 1.50816,-0.60323 2.26175,-0.90528 -0.40564,-0.98044 -0.81159,-1.96114 -1.21789,-2.94215 -0.46361,-1.70969 -0.92753,-3.41963 -1.39183,-5.12989 0.17432,-0.30146 0.34831,-0.60322 0.52192,-0.90527 1.47923,0.17633 2.95802,0.35235 4.43654,0.52807 1.27624,0.0254 2.55206,0.0506 3.82759,0.0754 0.37728,-0.65352 0.75423,-1.30732 1.13086,-1.96143 -0.43464,-0.4272 -0.86956,-0.85468 -1.30486,-1.28247 -1.53652,3e-4 -3.07331,3e-4 -4.61048,0 -1.21755,0.0506 -2.4354,0.10093 -3.6536,0.15088 -0.0867,-0.65352 -0.17365,-1.30733 -0.26097,-1.96144 0.69627,-0.8044 1.39219,-1.60907 2.08776,-2.41406 2.11716,-0.25118 4.23389,-0.50264 6.35032,-0.7544 1.01523,-0.12543 2.0301,-0.25116 3.04465,-0.37719 -0.14464,-0.50265 -0.28962,-1.00557 -0.43496,-1.5088 -0.6086,-0.42719 -1.2175,-0.85468 -1.8268,-1.28246 -1.73951,0.0758 -3.47926,0.15118 -5.21942,0.22631 -2.00048,0.80501 -4.0012,1.60968 -6.00233,2.41406 -0.89858,1.30795 -1.79746,2.61554 -2.69671,3.92287 0.14533,0.52838 0.29031,1.05644 0.43495,1.58423 -1.24654,-0.27632 -2.49337,-0.55293 -3.7406,-0.82984 -0.46361,3.1e-4 -0.92755,3.1e-4 -1.39185,0 -0.49258,0.42781 -0.98555,0.85528 -1.47882,1.28248 -0.0577,0.37749 -0.11561,0.7547 -0.17398,1.13159 1.01524,0.30207 2.03013,0.60381 3.04465,0.90528 0.87029,0.15118 1.74016,0.30205 2.60972,0.45263 0.43531,-0.12543 0.87027,-0.25116 1.30487,-0.3772 z" />
      <path
         id="path962"
         style="fill:#ffffff;stroke:none;stroke-width:0.32078px;stroke-linecap:butt;stroke-linejoin:miter;stroke-opacity:1;fill-opacity:1"
         d="m 325.3714,141.75787 c -1.21791,-0.0127 -2.40666,0.16337 -3.58122,0.77949 -1.17452,0.61611 -2.33395,1.67185 -3.14592,2.89157 -0.81197,1.21971 -1.2761,2.60302 -1.39197,3.70956 -0.11587,1.10654 0.11626,1.93626 0.43529,2.65294 0.31901,0.71668 0.72492,1.32025 1.55144,2.01173 0.82646,0.69147 2.07332,1.47106 3.16073,2.03682 1.08737,0.56577 2.01522,0.918 2.82702,0.98078 0.8118,0.0628 1.50779,-0.16372 2.76919,-0.51577 1.26135,-0.35206 3.08802,-0.83 4.3058,-1.32035 1.21774,-0.49033 1.82662,-0.99337 2.05869,-1.42069 0.23206,-0.42732 0.0866,-0.77928 -0.4642,-1.05604 -0.55084,-0.27676 -1.50707,-0.47791 -2.29017,-0.42767 -0.78307,0.0502 -1.39229,0.35197 -2.30561,0.66629 -0.91334,0.31434 -2.13116,0.64125 -2.98651,0.72932 -0.8553,0.0881 -1.34857,-0.0628 -2.0735,-0.43992 -0.72492,-0.37713 -1.68171,-0.9806 -2.18925,-1.3326 -0.50749,-0.35199 -0.56499,-0.45218 -0.4346,-0.60329 0.13041,-0.15109 0.4489,-0.35254 1.91339,-0.44049 1.4645,-0.088 4.07412,-0.0627 5.92993,-0.10038 1.85576,-0.0377 2.95799,-0.13842 3.7117,-0.47783 0.75376,-0.33942 1.15926,-0.91777 0.91297,-1.72234 -0.24626,-0.80457 -1.14455,-1.83568 -2.08697,-2.90441 -0.94239,-1.06873 -1.92869,-2.17519 -3.045,-2.82915 -1.11634,-0.65395 -2.36326,-0.85494 -3.58123,-0.86758 z m 0.18571,2.70604 c 0.40327,0.0188 0.73894,0.19695 1.11951,0.48776 0.60887,0.4653 1.33376,1.21953 1.69607,1.67216 0.36231,0.45263 0.36235,0.60353 0.13052,0.69138 -0.23182,0.0878 -0.69578,0.11291 -1.79766,0.12545 -1.1019,0.0125 -2.84166,0.0129 -3.71174,0.0129 -0.87008,0 -0.87012,-1e-4 -0.97149,-0.16337 -0.10141,-0.16327 -0.30451,-0.49036 0.18835,-1.04379 0.49287,-0.55342 1.68185,-1.33256 2.52293,-1.63423 0.31542,-0.11313 0.58152,-0.15949 0.82351,-0.1482 z" />
      <path
         style="fill:#ffffff;stroke:none;stroke-width:0.32078px;stroke-linecap:butt;stroke-linejoin:miter;stroke-opacity:1;fill-opacity:1"
         d="m 327.40103,136.62773 c 1.36288,-1.24477 4.08858,-3.73428 5.65438,-5.20533 1.56581,-1.47105 1.97176,-1.92369 1.71098,-2.36366 -0.26077,-0.43997 -1.18865,-0.86745 -1.87022,-0.9556 -0.68157,-0.0881 -1.11652,0.16333 -2.65342,1.50871 -1.53689,1.34538 -4.17555,3.78455 -5.53844,5.20546 -1.36289,1.42092 -1.44988,1.82324 -1.17417,2.17528 0.2757,0.35204 0.91361,0.65379 1.39202,0.792 0.4784,0.1382 0.79738,0.11307 0.95668,0.10051 0.15931,-0.0126 0.15931,-0.0126 1.52219,-1.25737 z"
         id="path970"
         inkscape:path-effect="#path-effect972"
         inkscape:original-d="m 326.03815,137.87251 c 2.72607,-2.48921 5.45178,-4.97871 8.17711,-7.46852 0.4063,-0.45234 0.81225,-0.90497 1.21786,-1.35791 -0.92755,-0.4272 -1.85543,-0.85468 -2.7837,-1.28248 -0.4346,0.25178 -0.86956,0.50324 -1.30483,0.7544 -2.63841,2.43957 -5.27708,4.87873 -7.91613,7.31764 -0.0867,0.40266 -0.17364,0.80499 -0.26097,1.20703 0.6383,0.30207 1.27621,0.60383 1.91378,0.90528 0.31932,-0.0248 0.63829,-0.05 0.95688,-0.0754 z" />
    </g>
  </g>
</svg>
